<?xml version="1.0" standalone="no"?>
<!DOCTYPE svg PUBLIC "-//W3C//DTD SVG 1.1//EN" "http://www.w3.org/Graphics/SVG/1.1/DTD/svg11.dtd" >
<svg xmlns="http://www.w3.org/2000/svg">
<metadata>
<json>
<![CDATA[
{
	"fontFamily": "ysm118-icomoon",
	"majorVersion": 1,
	"minorVersion": 0,
	"version": "Version 1.0",
	"fontId": "ysm118-icomoon",
	"psName": "ysm118-icomoon",
	"subFamily": "Regular",
	"fullName": "ysm118-icomoon",
	"description": "Font generated by IcoMoon."
}
]]>
</json>
</metadata>
<defs>
<font id="ysm118-icomoon" horiz-adv-x="512">
<font-face units-per-em="512" ascent="480" descent="-32" />
<missing-glyph horiz-adv-x="512" />
<glyph unicode="&#x20;" horiz-adv-x="256" d="" />
<glyph unicode="&#xe900;" glyph-name="corp-doc" data-tags="Corporate Documents" horiz-adv-x="662" d="M341.13 16.051c-1.422 0-5.689 0-12.8 0-4.267-11.378-15.644-19.911-28.445-19.911h-217.6c-17.067 0-29.867 12.8-29.867 29.866v305.778c0 17.067 14.222 29.866 29.867 29.866h2.844c0 9.956 0 19.911 0 29.867h-2.844c-32.711 0-59.733-27.022-59.733-59.733v-307.2c0-32.711 27.022-59.733 59.733-59.733h219.022c29.866 0 54.044 21.334 58.311 49.778-8.534 1.422-17.067 1.422-18.489 1.422zM372.419 65.829c0-15.644-12.8-29.866-29.866-29.866h-219.022c-17.067 0-29.867 12.8-29.867 29.866v307.2c0 15.644 12.8 29.866 29.867 29.866 0 11.378 0 21.334 0 29.867-32.711 0-59.733-27.022-59.733-59.733v-307.2c0-32.711 27.022-59.733 59.733-59.733h219.022c32.711 0 58.311 25.6 59.733 58.311-9.955 1.422-19.911 1.422-29.866 1.422zM193.219 307.607v-142.222h-35.555v142.222h35.555zM289.93 307.607v-142.222h-31.289l-18.489 64v-64h-29.867v142.222h29.867l19.911-64v64h29.866zM388.063 245.029h-36.978v24.178c0 7.111 0 11.378-1.422 12.8s-2.844 2.845-5.689 2.845c-2.844 0-4.267-1.422-5.689-2.845-1.422-2.844-1.422-7.111-1.422-14.222v-65.422c0-7.111 0-11.378 1.422-12.8s2.844-2.844 5.689-2.844c2.844 0 4.267 1.422 5.689 2.844s1.422 7.111 1.422 14.222v18.489h36.978v-5.689c0-14.222-1.422-25.6-2.844-31.289s-7.111-11.378-14.222-15.644c-7.111-4.267-15.644-7.111-25.6-7.111s-19.911 1.422-25.6 5.689-11.378 9.955-14.222 15.644c-1.422 7.111-2.844 18.489-2.844 31.289v41.245c0 9.955 0 18.489 1.422 22.755 0 5.689 2.844 9.956 5.689 14.222s8.534 8.534 14.222 11.378c5.689 2.844 12.8 4.267 21.334 4.267 11.378 0 19.911-1.422 27.022-5.689s11.378-9.955 14.222-15.644c2.844-5.689 2.844-15.644 2.844-29.866v-12.8zM442.108 328.94l-139.378 143.644v-102.4c0-22.756 18.489-39.822 39.822-39.822l99.555-1.422zM412.241 330.362v-224.711c0-17.067-12.8-29.866-29.866-29.866h-219.022c-17.066 0-29.867 12.8-29.867 29.866v307.2c0 17.066 12.8 29.866 29.867 29.866h139.378v29.867h-139.378c-34.133 0-59.733-27.022-59.733-59.734v-307.2c0-32.711 27.022-59.733 59.733-59.733h219.022c32.711 0 59.733 27.022 59.733 59.733v223.289l-29.866 1.422z" />
<glyph unicode="&#xe901;" glyph-name="cv" data-tags="cv_2016_left" horiz-adv-x="662" d="M293.412 270.923c0-27.627-22.396-50.023-50.023-50.023s-50.023 22.396-50.023 50.023c0 27.627 22.396 50.023 50.023 50.023s50.023-22.396 50.023-50.023zM181.596 215.015c-20.597 0-38.253-13.241-38.253-29.425v-100.046h204.506v100.046c0 16.184-17.655 29.425-38.253 29.425h-128zM291.94 475.429h-164.781c-30.434-0.444-55.863-21.356-63.163-49.563-20.879-7.136-36.785-23.527-42.657-44.145-1.713-5.673-2.769-11.712-3.047-17.951l-0.006-335.606c0.329-35.619 29.116-64.406 64.704-64.736h238.376c6.397 0.284 12.435 1.339 18.176 3.078 21.732 6.050 38.904 23.221 44.979 45.017 26.702 8.916 45.644 33.361 45.718 62.24v251.595zM341.964 3.153c-5.139-4.38-11.791-7.123-19.077-7.355l-239.865-0.001c-17.809 0.165-32.203 14.558-32.367 32.352v335.464c-0.001 0.067-0.001 0.147-0.001 0.226 0 7.297 2.796 13.942 7.376 18.919l4.395 4.394v-313.379c0.33-35.619 29.117-64.406 64.704-64.736h220.721zM397.872 75.245c0.002-0.137 0.003-0.298 0.003-0.461 0-9.9-4.569-18.733-11.714-24.505-5.618-4.875-12.703-8.082-20.503-8.862l-238.499-0.012c-17.809 0.165-32.203 14.558-32.368 32.352v335.464c0.415 7.115 2.549 13.654 5.989 19.311 5.231 7.874 14.258 13.116 24.51 13.116 0.657 0 1.31-0.022 1.957-0.064l149.981 0.005v-85.334c-0.015-0.438-0.024-0.954-0.024-1.471 0-24.377 19.761-44.138 44.138-44.138 0.009 0 0.017 0 0.026 0h76.505v-235.402z" />
<glyph unicode="&#xe902;" glyph-name="org-chart" data-tags="org-chart_2016_blk" horiz-adv-x="662" d="M329.955 351.695c29.866 0 54.045 24.178 54.045 54.045s-24.178 54.045-54.044 54.045-54.044-24.178-54.044-54.045 24.178-54.045 54.044-54.045zM386.844 346.007h-106.666c-17.067 0-31.289-14.222-31.289-31.289v-106.666h170.667v106.666c-1.422 17.066-15.644 31.289-32.711 31.289zM402.489 121.295h-55.466v62.578c0 7.111-5.689 14.222-14.222 14.222h-2.844c-7.111 0-14.222-5.689-14.222-14.222v-62.578h-55.466c-7.111 0-14.222-5.689-14.222-14.222v-2.844c0-7.111 5.689-14.222 14.222-14.222h140.8c7.111 0 14.222 5.689 14.222 14.222v2.844c1.422 7.111-4.267 14.222-12.8 14.222zM143.644 124.14c29.867 0 54.044 24.178 54.044 54.044s-24.178 54.044-54.044 54.044-54.044-25.6-54.044-55.466 24.178-52.622 54.044-52.622zM200.534 118.451h-108.089c-17.067 0-31.289-14.222-31.289-31.289v-106.666h170.666v106.666c0 17.067-14.222 31.289-31.289 31.289zM517.689 124.14c29.866 0 54.044 24.178 54.044 54.044s-24.178 54.044-54.044 54.044-54.044-24.178-54.044-54.044 25.6-54.044 54.044-54.044zM574.578 118.451h-106.666c-17.067 0-31.289-14.222-31.289-31.289v-106.666h170.666v106.666c-1.422 17.067-15.644 31.289-32.711 31.289z" />
<glyph unicode="&#xe903;" glyph-name="slide" data-tags="slide_2016_blk" horiz-adv-x="662" d="M588.8 459.784h-280.178c-18.489 0-35.555-8.534-44.089-22.756v0-1.422c-1.422-2.845-2.844-4.267-4.267-7.111l-237.511-448 584.534 226.134c18.489 7.111 32.711 22.755 32.711 41.245v166.4c1.422 24.178-22.755 45.511-51.2 45.511zM612.978 249.295c0-8.534-11.378-17.066-24.178-17.066h-280.178c-12.8 0-24.178 7.111-24.178 17.066v164.978c0 8.534 11.378 17.067 24.178 17.067h278.755c12.8 0 24.178-7.111 24.178-17.067v-164.978zM374.045 341.74h203.378v-21.333h-203.378v21.334zM374.045 290.54h203.378v-22.756h-203.378v22.756zM347.022 331.784c0-10.211-8.278-18.489-18.489-18.489s-18.489 8.278-18.489 18.489c0 10.211 8.278 18.489 18.489 18.489s18.489-8.278 18.489-18.489zM347.022 279.162c0-10.211-8.278-18.489-18.489-18.489s-18.489 8.278-18.489 18.489c0 10.211 8.278 18.489 18.489 18.489s18.489-8.278 18.489-18.489zM374.045 394.362h203.378v-21.334h-203.378v21.334zM347.022 384.407c0-10.211-8.278-18.489-18.489-18.489s-18.489 8.278-18.489 18.489c0 10.211 8.278 18.489 18.489 18.489s18.489-8.278 18.489-18.489z" />
<glyph unicode="&#xe904;" glyph-name="financials" data-tags="financials_2016_blk" horiz-adv-x="662" d="M93.6 264.114c1.143-2.514 1.829-5.372 1.829-8.457 0-1.486-0.115-2.971-0.457-4.457-0.686-3.429-2.743-6.4-5.6-8.343l9.829-12.8c4.228 2.629 7.085 7.315 7.085 12.685 0 0 0 0 0 0.115l42.514-51.086 12.8 2.857-58.172 70.971-9.829-1.486zM191.429 204.572l-8.457 9.943-12.8-2.857 12.8-12.8 5.714 1.372c2.057-1.829 3.657-4.228 4.228-6.971-0.457-1.829-1.486-3.315-2.743-4.343l7.085-5.714c2.057 1.029 3.543 3.2 3.543 5.714 0 1.029-0.228 1.943-0.685 2.857-2.743 4.8-5.486 9.029-8.685 12.914v-0.115zM168.8 278.286c1.143-2.514 1.828-5.371 1.828-8.457 0-1.486-0.114-2.971-0.457-4.457-0.685-3.428-2.743-6.4-5.6-8.343l9.828-12.8c4.228 2.628 7.085 7.315 7.085 12.685 0 0 0 0 0 0.114l42.514-51.085 12.8 2.857-58.172 70.971-9.828-1.486zM239.657 281.143c-4.915 3.772-11.2 6.057-18.057 6.057-1.6 0-3.2-0.114-4.8-0.343 0 0-0.114 0-0.343 0-4.685 0-8.457-3.772-8.457-8.457 0-1.029 0.228-2.057 0.457-2.857 3.772-11.657 10.172-21.714 18.4-29.714 8.343-10.629 18.286-19.543 29.372-26.628 5.486-4 11.772-6.286 18.514-6.286 1.6 0 3.2 0.115 4.8 0.343 4.685 1.029 8.343 5.372 8.343 10.514 0 0.228 0 0.571 0 0.8-3.885 11.657-10.171 21.714-18.4 29.714-8.343 10.628-18.286 19.543-29.371 26.628l-0.457 0.228zM268 225.829c-0.8-0.228-1.714-0.343-2.628-0.343-2.857 0-5.486 1.257-7.315 3.2-7.772 5.486-14.286 12.114-19.657 19.657-5.943 6.514-11.2 13.486-15.429 21.029-0.343 3.429-0.343 6.172 2.514 6.172 3.772-0.457 7.2-1.943 9.943-4.228 7.772-5.486 14.286-12.115 19.657-19.543 5.6-6.172 10.743-12.685 15.428-19.543 0.343-3.543 0.343-6.4-2.514-6.4v0zM289.372 289.6c-4.914 3.772-11.2 6.057-18.057 6.057-1.6 0-3.2-0.115-4.8-0.343-4.685-0.685-8.457-4.8-8.457-9.828 0-0.572 0-1.029 0.115-1.6 3.772-11.657 10.171-21.714 18.4-29.714 8.343-10.629 18.286-19.543 29.372-26.629 5.486-4 11.772-6.286 18.514-6.286 1.6 0 3.2 0.115 4.8 0.343 4.685 1.029 8.343 5.371 8.343 10.514 0 0.228 0 0.571 0 0.8-3.885 11.657-10.171 21.714-18.4 29.714-8.343 10.628-18.286 19.543-29.372 26.628l-0.457 0.343zM319.086 234.286c-0.8-0.228-1.714-0.343-2.628-0.343-2.857 0-5.486 1.257-7.315 3.2-7.772 5.486-14.286 12.114-19.657 19.657-5.943 6.514-11.2 13.486-15.428 21.029-0.343 3.429-0.343 6.172 2.514 6.172 0.8 0.228 1.714 0.343 2.628 0.343 2.857 0 5.486-1.257 7.315-3.2 7.772-5.486 14.286-12.114 19.657-19.657 5.943-6.514 11.2-13.486 15.428-21.029 0.343-3.315 0.343-6.172-2.514-6.172zM368.8 237.143l-8.457 9.943-12.8-2.857 11.315-14.172 5.714 1.372c2.057-1.829 3.657-4.228 4.228-6.971-0.457-1.829-1.486-3.315-2.857-4.343l8.457-4.228c2.057 1.029 3.543 3.2 3.543 5.714 0 1.029-0.228 1.943-0.685 2.857-2.743 4.8-5.486 9.029-8.685 12.915l0.228-0.228zM365.943 303.772c-4.914 3.772-11.2 6.057-18.057 6.057-1.6 0-3.2-0.115-4.8-0.343-4.685 0-8.685-4-8.685-8.914 0-0.915 0.115-1.714 0.343-2.514 3.772-11.657 10.171-21.6 18.4-29.714 8.343-10.629 18.286-19.543 29.372-26.629 5.486-4 11.772-6.286 18.514-6.286 1.6 0 3.2 0.115 4.8 0.343 4.685 1.029 8.343 5.371 8.343 10.514 0 0.228 0 0.571 0 0.8-3.885 11.657-10.171 21.714-18.4 29.714-8.343 10.628-18.286 19.543-29.372 26.628l-0.457 0.343zM394.286 248.457c-0.8-0.228-1.714-0.343-2.628-0.343-2.857 0-5.486 1.257-7.315 3.2-7.772 5.486-14.286 12.115-19.657 19.657-5.943 6.514-11.2 13.486-15.428 21.029-0.343 3.428-0.343 6.171 2.514 6.171 3.657-0.457 7.086-1.486 10.171-2.971 7.543-5.486 14.057-12 19.428-19.543 5.943-6.514 11.2-13.486 15.428-21.029 0.343-3.315 0.343-6.171-2.514-6.171v0zM415.543 312.343c-4.914 3.772-11.2 6.057-18.057 6.057-1.6 0-3.2-0.115-4.8-0.343-4.685-0.685-8.457-4.8-8.457-9.828 0-0.572 0-1.029 0.115-1.6 3.772-11.657 10.171-21.714 18.4-29.714 8.343-10.629 18.286-19.543 29.372-26.629 5.486-4 11.772-6.286 18.514-6.286 1.6 0 3.2 0.115 4.8 0.343 4.685 1.029 8.343 5.371 8.343 10.514 0 0.228 0 0.571 0 0.8-3.885 11.657-10.171 21.714-18.4 29.714-8.343 10.628-18.286 19.543-29.372 26.628l-0.457 0.343zM445.372 257.029c-0.8-0.228-1.714-0.343-2.628-0.343-2.857 0-5.486 1.257-7.315 3.2-7.772 5.486-14.286 12.114-19.657 19.657-5.943 6.514-11.2 13.486-15.428 21.029-0.343 3.429-0.343 6.172 2.514 6.172 0.8 0.228 1.714 0.343 2.628 0.343 2.857 0 5.486-1.257 7.315-3.2 7.772-5.486 14.286-12.114 19.657-19.657 5.943-6.514 11.2-13.486 15.428-21.029 0.343-3.315 0.343-6.172-2.514-6.172zM466.628 322.286c-4.914 3.772-11.2 6.057-18.057 6.057-1.6 0-3.2-0.115-4.8-0.343-4.685 0-8.685-4-8.685-8.914 0-0.915 0.115-1.714 0.343-2.514 3.772-11.657 10.171-21.6 18.4-29.714 8.343-10.629 18.286-19.543 29.372-26.629 5.486-4 11.772-6.286 18.514-6.286 1.6 0 3.2 0.115 4.8 0.343 4.685 1.029 8.343 5.371 8.343 10.514 0 0.228 0 0.571 0 0.8-3.885 11.657-10.171 21.714-18.4 29.714-8.343 10.628-18.286 19.543-29.372 26.628l-0.457 0.343zM494.971 266.972c-0.8-0.228-1.714-0.343-2.628-0.343-2.857 0-5.486 1.257-7.315 3.2-7.772 5.486-14.286 12.115-19.657 19.657-5.943 6.514-11.2 13.486-15.428 21.029-0.343 3.428-0.343 6.171 2.514 6.171 3.657-0.457 7.086-1.486 10.171-2.971 7.543-5.486 14.057-12 19.428-19.543 5.943-6.514 11.2-13.486 15.428-21.029 0.343-3.315 0.343-6.171-2.514-6.171v0zM524.8 275.429l11.314-14.172 12.8 2.857-11.314 14.171-12.8-2.857zM519.086 340.686c-4.914-0.685-8.572-4.8-8.572-9.829 0-0.571 0-1.029 0.115-1.6 3.771-11.657 10.172-21.714 18.4-29.714 8.343-10.629 18.285-19.543 29.371-26.629 5.486-4 11.771-6.286 18.514-6.286 1.6 0 3.2 0.115 4.8 0.343 4.686 1.029 8.343 5.371 8.343 10.514 0 0.228 0 0.571 0 0.8-3.885 11.657-10.172 21.714-18.4 29.714-8.343 10.628-18.285 19.543-29.371 26.628-5.486 4-11.771 6.286-18.514 6.286-1.6 0-3.2-0.114-4.8-0.343l0.115 0.114zM558.857 306.629c5.828-6.286 10.971-13.257 15.314-20.685 0.343-3.429 0.343-6.172-2.514-6.172-0.8-0.228-1.715-0.343-2.629-0.343-2.857 0-5.486 1.257-7.314 3.2-7.771 5.486-14.285 12.114-19.657 19.657-5.943 6.514-11.2 13.486-15.428 21.029-0.343 3.429-0.343 6.172 2.514 6.172 0.115 0 0.229 0 0.343 0 3.543 0 6.857-1.029 9.6-2.857 7.657-5.486 14.285-12.114 19.657-19.543l0.115-0.457zM265.257 116.572l14.171 1.372c-5.714 7.086-5.714 11.315 0 12.8 0.457 0 0.914 0 1.372 0 2.628 0 5.029-0.572 7.2-1.486 3.2-1.943 5.943-4.343 8.343-6.971 2.514-2.171 4.115-5.143 4.228-8.457 0.8-1.943 1.143-4.115 1.143-6.4s-0.457-4.457-1.257-6.514c-0.685-2.857-1.029-6.286-1.029-9.829s0.343-6.971 1.143-10.286c1.257-5.143 3.657-9.943 7.086-13.943l43.885 8.572-11.315 12.8-28.228-7.086v4.228c0.572 2.743 1.143 6.171 1.372 9.6v13.029c-0.343 3.2-1.372 6.057-2.857 8.572-1.372 3.2-3.315 6.057-5.6 8.457-4.343 5.714-10.057 10.057-16.8 12.685-4.343 2.171-9.257 3.428-14.4 3.428-2.057 0-4-0.228-5.943-0.572 0 0-0.228 0.115-0.572 0.115-4.457 0-8.115-2.971-9.143-7.086 0.343-6.628 3.086-12.457 7.2-17.029v0zM360.228 84c4.914-3.772 11.2-6.057 18.057-6.057 1.6 0 3.2 0.115 4.8 0.343 4.685 1.029 8.343 5.372 8.343 10.514 0 0.228 0 0.572 0 0.8-3.885 11.657-10.171 21.714-18.4 29.714-8.343 10.628-18.286 19.543-29.372 26.628-5.486 4-11.772 6.286-18.514 6.286-1.6 0-3.2-0.115-4.8-0.343-4.685-0.228-8.572-4.228-8.572-9.143 0-0.8 0.115-1.486 0.228-2.171 3.772-11.657 10.171-21.6 18.4-29.714 8.343-10.628 18.286-19.543 29.372-26.628l0.457-0.228zM330.514 140.686c0.8 0.228 1.714 0.343 2.628 0.343 2.857 0 5.486-1.257 7.315-3.2 7.772-5.486 14.286-12.115 19.657-19.657 5.943-6.514 11.2-13.486 15.428-21.029 0.343-3.428 0.343-6.171-2.514-6.171-0.8-0.228-1.714-0.343-2.628-0.343-2.857 0-5.486 1.257-7.315 3.2-7.772 5.486-14.286 12.115-19.657 19.657-5.943 6.514-11.2 13.486-15.428 21.029-0.343 3.315-0.343 6.171 2.514 6.171zM381.486 140.686c-1.257 2.057-2.171 4.457-2.857 6.971 0.115 1.714 1.257 2.857 2.743 2.971 0.343 0 0.8 0 1.143 0 2.171 0 4.228-0.572 6.057-1.486 2.857-1.029 5.372-3.086 6.971-5.6 1.829-1.714 2.857-4.115 2.857-6.743 0-0.115 0-0.343 0-0.457-0.343-2.4-2.4-4.343-4.914-4.343-0.228 0-0.572 0-0.8 0.115l8.572-11.315c1.372 0 2.857 1.372 4.228 1.372 0.914 0.343 1.829 0.457 2.857 0.457 2.171 0 4.115-0.685 5.6-1.943 3.885-1.6 7.315-4 9.829-7.086 2.514-2.171 4.115-5.143 4.228-8.457 0-0.228 0-0.343 0-0.457 0-2.171-1.714-3.885-3.885-3.885-0.115 0-0.343 0-0.457 0-0.343 0-0.914 0-1.372 0-2.628 0-5.029 0.572-7.2 1.486-3.885 1.6-7.2 4-9.829 6.971l-11.428-4.228c5.486-6.286 13.143-10.628 21.829-11.885 2.628-0.572 5.372-0.914 8.228-0.914s5.6 0.343 8.343 0.914c5.714 0.228 10.743 4.115 12.572 9.486 0 0.457 0.115 0.914 0.115 1.372 0 6.286-2.743 11.885-7.086 15.657-3.772 3.657-8 6.971-12.457 9.714-4.343 2.628-9.257 4.115-14.4 4.457 0.914 1.6 1.486 3.428 1.486 5.486 0 0.572 0 1.143-0.115 1.6-0.228 3.315-1.829 6.4-4.228 8.457-4.228 4.8-9.486 8.685-15.315 11.2-4.115 2.171-8.685 3.428-13.6 3.428-1.829 0-3.543-0.115-5.372-0.457-4.343-0.228-8.115-2.971-9.714-6.971-0.228-1.029-0.343-2.286-0.343-3.428 0-4.685 1.714-9.029 4.572-12.228h12.8l0.343-0.228zM473.714 102.4l-8.457 9.943-12.8-2.857 12.8-12.8 5.714 1.372c2.057-1.829 3.657-4.228 4.228-6.971-0.457-1.829-1.486-3.315-2.857-4.343l7.086-5.714c2.057 1.029 3.543 3.2 3.543 5.714 0 1.029-0.228 1.943-0.685 2.857-2.743 4.8-5.486 9.029-8.685 12.914l0.115-0.115zM486.514 106.629c4.914-3.772 11.2-6.057 18.057-6.057 1.6 0 3.2 0.115 4.8 0.343 4.685 1.029 8.343 5.372 8.343 10.514 0 0.228 0 0.572 0 0.8-3.885 11.657-10.171 21.714-18.4 29.714-8.343 10.628-18.286 19.543-29.372 26.628-5.486 4-11.772 6.286-18.514 6.286-1.6 0-3.2-0.115-4.8-0.343-4.685-0.685-8.457-4.8-8.457-9.829 0-0.572 0-1.029 0.115-1.6 3.772-11.657 10.171-21.714 18.4-29.714 8.343-10.628 18.286-19.543 29.372-26.628l0.457-0.115zM456.685 163.429c0.8 0.228 1.714 0.343 2.628 0.343 2.857 0 5.486-1.257 7.315-3.2 7.772-5.486 14.286-12.115 19.657-19.657 5.943-6.514 11.2-13.486 15.428-21.029 0.343-3.428 0.343-6.171-2.514-6.171-0.8-0.228-1.714-0.343-2.628-0.343-2.857 0-5.486 1.257-7.315 3.2-7.772 5.486-14.286 12.115-19.657 19.657-5.943 6.514-11.2 13.486-15.428 21.029-0.343 4.685-0.343 6.171 2.514 6.171zM507.772 143.543c8.343-10.514 18.171-19.543 29.257-26.628 5.486-4 11.771-6.286 18.514-6.286 1.6 0 3.2 0.115 4.8 0.343 4.686 1.029 8.343 5.372 8.343 10.514 0 0.228 0 0.572 0 0.8-3.885 11.657-10.172 21.714-18.4 29.714-8.343 10.628-18.285 19.543-29.371 26.628-5.486 4-11.772 6.286-18.514 6.286-1.6 0-3.2-0.115-4.8-0.343-4.685 0-8.685-4-8.685-8.914 0-0.914 0.115-1.714 0.343-2.514 3.885-11.543 10.171-21.486 18.514-29.6v0zM507.772 173.372c3.772-0.685 7.085-1.714 10.286-2.971 7.314-5.372 13.943-12 19.314-19.428 5.943-6.514 11.2-13.486 15.428-21.029 0.343-3.428 0.343-6.171-2.514-6.171-0.8-0.228-1.715-0.343-2.629-0.343-2.857 0-5.486 1.257-7.314 3.2-7.771 5.486-14.285 12.115-19.657 19.657-5.943 6.514-11.2 13.486-15.428 21.029-0.343 3.2-0.343 6.057 2.514 6.057zM587.2 125.143c4.914-3.772 11.2-6.057 18.057-6.057 1.6 0 3.2 0.115 4.8 0.343 4.686 1.029 8.343 5.372 8.343 10.514 0 0.228 0 0.572 0 0.8-3.885 11.657-10.172 21.714-18.4 29.714-8.343 10.628-18.285 19.543-29.371 26.628-5.486 4-11.771 6.286-18.514 6.286-1.6 0-3.2-0.115-4.8-0.343-4.686-0.685-8.457-4.8-8.457-9.829 0-0.572 0-1.029 0.115-1.6 3.771-11.657 10.172-21.714 18.4-29.714 8.343-10.628 18.285-19.543 29.371-26.628l0.457-0.115zM557.371 181.829c0.343 0 0.686 0 1.029 0 3.314 0 6.4-1.029 8.914-2.857 7.657-5.486 14.285-12.115 19.657-19.543 5.943-6.514 11.2-13.486 15.428-21.029 0.343-3.428 0.343-6.171-2.514-6.171-0.8-0.228-1.715-0.343-2.629-0.343-2.857 0-5.486 1.257-7.314 3.2-7.771 5.486-14.285 12.115-19.657 19.657-5.943 6.514-11.2 13.486-15.428 21.029-0.343 3.2-0.343 6.057 2.514 6.057v0zM659.543 154.857v252.457c-2.057 38.057-33.371 68.115-71.657 68.115-0.229 0-0.457 0-0.686 0h-516.229c-39.2 0-70.972-31.772-70.972-70.857v-370.171c0.8-38.514 32.228-69.486 70.857-69.486 0 0 0 0 0 0h517.715c39.2 0 70.857 31.772 70.857 70.857l0.115 119.086zM494.971 447.086c4.228-7.085 8.457-11.315 8.457-12.8s0-4.228-2.857-5.714c-0.343 0-0.685 0-1.029 0-3.315 0-6.4 1.029-8.914 2.857-5.6 4.914-10.628 9.943-15.428 15.428l19.772 0.228zM435.428 447.086v0c5.6-6.628 11.2-14.057 16.457-21.714 0.685-1.372 0.8-1.715 0.8-2.172 0-2.057-1.257-3.772-2.971-4.457-0.343 0-0.685 0-1.029 0-3.315 0-6.4 1.029-8.914 2.857-6.971 6.286-13.486 12.8-19.657 19.543-1.6 1.6-3.086 4.457-4.457 5.943h19.772zM348.914 447.086c5.257-3.772 9.6-8.457 12.685-13.943 5.943-6.4 11.086-13.372 15.428-20.915 0.343-3.428 0.343-6.171-2.514-6.171-0.8-0.228-1.714-0.343-2.628-0.343-2.857 0-5.486 1.257-7.315 3.2-7.086 6.285-13.6 12.8-19.657 19.657-4.914 5.714-9.6 11.657-13.943 17.943l17.943 0.572zM280.8 447.086c3.772-0.457 7.2-1.943 9.943-4.228 7.772-5.486 14.286-12.115 19.657-19.543 5.943-6.514 11.2-13.486 15.428-21.029 0.343-3.428 0.343-4.8-2.514-4.8-0.8-0.229-1.714-0.343-2.628-0.343-2.857 0-5.486 1.257-7.315 3.2-7.772 5.486-14.286 12.115-19.657 19.657-5.943 6.514-11.2 13.486-15.428 21.029-0.343 3.2-0.343 6.057 2.514 6.057v0zM231.2 437.143c0.8 0.228 1.714 0.343 2.629 0.343 2.857 0 5.486-1.257 7.315-3.2 7.772-5.486 14.286-12.114 19.657-19.657 5.943-6.514 11.2-13.486 15.428-21.029 0.343-3.428 0.343-6.171-2.514-6.171-0.8-0.228-1.714-0.343-2.628-0.343-2.857 0-5.486 1.257-7.315 3.2-7.772 5.486-14.286 12.115-19.657 19.657-5.943 6.514-11.2 13.486-15.429 21.029-0.343 3.314-0.343 6.171 2.514 6.171zM29.828 295.314l-1.486 109.257c0 23.543 19.086 42.514 42.514 42.514h146.057c-2.629-1.714-4.457-4.685-4.457-8.114 0-0.686 0.114-1.257 0.228-1.829 3.772-11.657 10.172-21.6 18.4-29.714 8.343-10.629 18.285-19.543 29.371-26.629 5.486-4 11.772-6.285 18.514-6.285 1.6 0 3.2 0.114 4.8 0.343 4.685 1.029 8.343 5.372 8.343 10.514 0 0.228 0 0.572 0 0.8-3.885 11.657-10.171 21.714-18.4 29.714-8.343 10.629-18.286 19.543-29.371 26.629l-9.029 4.572h28.343c3.2-11.886 9.714-22.057 18.4-29.715 8.457-10.628 18.286-19.543 29.372-26.743 5.486-4 11.772-6.286 18.514-6.286 1.6 0 3.2 0.115 4.8 0.343 4.685 1.029 8.343 5.372 8.343 10.514 0 0.228 0 0.572 0 0.8-3.885 11.657-10.171 21.714-18.4 29.714l-21.257 21.257h12.8c4.115-8.228 9.372-15.2 15.543-21.257 8.343-10.628 18.286-19.543 29.372-26.628 5.486-4 11.772-6.286 18.514-6.286 1.6 0 3.2 0.115 4.8 0.343 4.685 1.029 8.343 5.371 8.343 10.514 0 0.228 0 0.572 0 0.8-3.885 11.657-10.171 21.715-18.4 29.715-4.115 3.885-7.885 8-11.2 12.572l39.543 0.228c1.486-2.743 3.428-5.143 5.6-7.085 8-10.971 17.943-20 29.372-26.743 5.943-3.885 12.8-6.057 20.115-6.057 1.029 0 2.171 0 3.2 0.115 4.8 1.029 8.457 5.371 8.457 10.514 0 0.228 0 0.572 0 0.8-3.543 11.085-9.372 20.571-17.029 28.343h9.943c7.428-9.6 16.343-17.715 26.514-23.886 5.943-3.885 12.8-6.057 20-6.057 1.029 0 2.171 0 3.2 0.115 4.8 0.685 8.457 4.8 8.457 9.829 0 0.571 0 1.028-0.115 1.6-2.057 7.086-5.371 13.257-9.943 18.4h11.428l52.457-55.315-544.572-96.228zM28.343 190.4c1.943-3.315 3.771-6.057 5.829-8.685 1.257-2.628-0.114-4-2.971-5.486h-2.857v14.171zM28.343 164.8c2.857-0.914 6.057-1.486 9.485-1.486 0.685 0 1.257 0 1.943 0.115 4.8 0.685 8.572 4.8 8.572 9.829 0 0.572 0 1.029-0.114 1.6-2.057 12.457-8.114 23.2-16.915 31.086l-2.857 2.857v38.286l86.514-92.228-86.514-15.657-0.114 25.6zM29.828 27.2c0 2.857-1.372 5.714-1.372 8.457v1.372c1.372-1.029 2.4-2.514 2.857-4.228 0.343-0.685 0.572-1.372 0.572-2.171-0.114-1.257-0.915-2.628-2.057-3.428v0zM70.857-6.743c-0.343 0-0.915 0-1.371 0-16 0-29.943 9.143-36.8 22.514l6.971 0.228c4.914 0.685 8.572 4.8 8.572 9.829 0 0.572 0 1.029-0.114 1.6-4.915 10.857-11.085 20.228-18.515 28.457l-1.372 1.257v66.629l99.314 17.029 114.857-120.572-160.114-28.457h-11.428v1.486zM178.743-6.743l78.057 14.171 12.8-14.171h-90.857zM414.171-6.743v2.857c0.115 1.486 1.372 2.743 2.857 2.857 0.228 0 0.457 0 0.572 0 2.4 0 4.572-0.572 6.628-1.486 2.057-1.029 4-2.514 5.6-4.228h-15.657zM560.229-6.743l-2.857 2.857c-8.457 11.315-14.172 18.4-15.657 21.257-0.457 0.572-0.686 1.372-0.686 2.171 0 1.943 1.6 3.543 3.543 3.543v0c0.343 0 0.686 0 1.029 0 3.314 0 6.4-1.029 8.914-2.857 6.971-6.286 13.486-12.8 19.657-19.543 2.514-2.171 4.343-4.572 5.828-7.2l-19.771-0.228zM629.715 35.772c-0.229-5.714-1.257-10.971-2.971-16-5.943 6.4-12.457 12-19.2 17.143-6.057 4-12.8 6.171-20.115 6.171-1.029 0-2.172 0-3.2-0.115-4.8-0.685-8.457-4.8-8.457-9.829 0-0.572 0-1.029 0.115-1.6 2.172-8.228 6.057-15.315 11.428-21.257 3.314 1.029 7.314 1.6 11.314 1.6 1.029 0 1.943 0 2.971-0.115-4 4.115-7.2 8.8-9.943 13.829-0.572 0.914-0.914 1.714-0.914 2.514 0 1.943 1.6 3.543 3.543 3.543v0c0.343 0 0.686 0 1.029 0 3.314 0 6.4-1.029 8.914-2.857 2.743-2.857 8.457-8.457 15.543-17.029h2.857c-7.2-11.2-19.543-18.4-33.6-18.4-0.115 0-0.343 0-0.457 0 0.115 0.457 0.115 1.029 0.115 1.6 0 2.971-0.572 5.829-1.486 8.457-8.572 9.6-17.943 18.4-27.885 26.4-5.943 4-12.8 6.171-20 6.171-1.029 0-2.172 0-3.2-0.115-4.8-0.685-8.457-4.8-8.457-9.829 0-0.572 0-1.029 0.115-1.6 3.885-11.657 10.172-21.6 18.4-29.714l1.371-1.372h-49.6v1.372c-0.228 3.428-1.829 6.4-4.228 8.457-4.228 4.8-9.486 8.685-15.315 11.2-4.228 2.171-8.8 3.315-13.829 3.315-1.714 0-3.428-0.115-5.143-0.457-4.343-0.228-8.115-2.971-9.714-6.971-0.228-1.029-0.343-2.286-0.343-3.428 0-4.685 1.714-9.029 4.572-12.228l12.8 2.857c-1.714 1.714-2.857 4-2.857 6.628 0 0.115 0 0.343 0 0.457 0.115 1.486 1.372 2.628 2.857 2.857 0.228 0 0.457 0 0.572 0 2.4 0 4.572-0.572 6.628-1.486 2.628-1.486 5.029-3.315 6.971-5.6 1.829-1.714 2.857-4.115 2.857-6.743 0-0.115 0-0.343 0-0.457h-39.657c-4.228 4.8-9.486 8.685-15.315 11.2-4.228 2.171-8.8 3.315-13.829 3.315-1.714 0-3.428-0.115-5.143-0.457-4.343-0.228-8.115-2.971-9.714-6.971-0.343-1.143-0.572-2.4-0.572-3.657s0.228-2.514 0.572-3.657l-107.772 0.115-17.143 17.257 354.514 62.4v-36.914zM629.715 207.429h-5.715c-4.914-0.685-8.572-4.8-8.572-9.829 0-0.572 0-1.029 0.115-1.6 3.086-9.257 8-17.372 14.172-24.115v-29.714h-1.371l1.371-1.372v-49.6l-367.315-65.257-114.857 120.457 482.172 85.029v-24zM629.715 308.114c-2.057 3.315-4.343 6.057-7.086 8.457-8.457 10.628-18.285 19.543-29.371 26.743-5.486 4-11.771 6.285-18.514 6.285-1.6 0-3.2-0.114-4.8-0.343-0.229 0.115-0.572 0.115-1.029 0.115-4.457 0-8.115-3.657-8.115-8.115 0-1.257 0.229-2.4 0.8-3.429 3.771-11.657 10.172-21.714 18.4-29.714 8.343-10.629 18.285-19.543 29.371-26.629 5.143-3.885 11.2-6.057 17.715-6.057 0.914 0 1.828 0 2.743 0.114l-0.115-28.343-494.971-87.885-106.4 110.628v11.2l557.371 97.829 44-46.857v-24zM624 293.943c0-2.857 0-5.714-2.857-5.714-0.8-0.228-1.715-0.343-2.629-0.343-2.857 0-5.486 1.257-7.314 3.2-7.771 5.486-14.285 12.115-19.657 19.657-5.943 6.514-11.2 13.486-15.428 21.029-0.343 3.428-0.343 6.171 2.514 6.171 0.8 0.228 1.715 0.343 2.629 0.343 2.857 0 5.486-1.257 7.314-3.2 7.771-5.486 14.285-12.115 19.657-19.657 5.943-6.514 11.2-13.486 15.428-21.029l0.343-0.457zM629.715 356.343l-24.115 25.486 24.115 4.228v-29.714zM629.715 401.714l-36.914-7.085-49.6 51.086h44c23.543 0 42.514-19.086 42.514-42.514v-1.486zM45.371 417.257c1.143-2.514 1.828-5.371 1.828-8.457 0-1.486-0.114-2.971-0.457-4.457 0.114-0.115 0.114-0.572 0.114-0.914 0-3.2-1.715-5.943-4.229-7.428l11.315-11.315c4.229 2.628 7.086 7.315 7.086 12.685 0 0 0 0 0 0.115l42.514-51.086 12.8 1.372-61.029 70.857-9.943-1.371zM140.457 366.172v4.228c0.571 2.743 1.143 6.171 1.371 9.6v13.029c-1.371 2.857-1.371 5.714-2.857 8.457-2.057 3.315-4.343 6.057-7.085 8.457-4.343 5.714-10.171 10.057-16.8 12.685-4.343 2.172-9.257 3.429-14.4 3.429-2.057 0-4-0.228-5.943-0.572 0 0-0.228 0.114-0.572 0.114-4.457 0-8.115-2.971-9.143-7.085 0-0.457 0-0.8 0-1.257 0-6.514 2.171-12.572 5.715-17.371l14.171 1.486c-5.715 8.457-5.715 12.8 0 12.8 0.915 0.343 1.829 0.457 2.857 0.457 2.171 0 4.115-0.685 5.6-1.943 3.543-0.685 6.4-3.428 7.085-6.971 2.4-2.171 4-5.143 4.228-8.572 0.8-1.943 1.143-4.114 1.143-6.4s-0.457-4.457-1.257-6.514c0-1.143-0.115-2.629-0.115-4.115 0-5.486 0.572-10.971 1.6-16.228 1.143-4.914 3.657-9.714 7.085-13.714l43.886 8.572-11.315 12.8-25.257-5.371zM148.915 435.772c1.143-2.514 1.828-5.371 1.828-8.457 0-1.486-0.114-2.971-0.457-4.457-0.685-3.428-2.743-6.4-5.6-8.343l9.828-12.8c4.228 2.628 7.085 7.315 7.085 12.685 0 0 0 0 0 0.115l42.629-51.086 12.8 2.857-61.029 70.857-7.085-1.372zM246.743 376.114l-8.457 9.943-12.8-2.857 12.8-12.8 5.714 1.371c2.057-1.828 3.657-4.228 4.228-6.971-0.457-1.828-1.486-3.314-2.743-4.343l7.085-5.715c2.057 1.029 3.543 3.2 3.543 5.715 0 1.028-0.228 1.943-0.685 2.857-2.743 4.8-5.486 9.029-8.685 12.914v-0.114zM402.743 415.886l11.315-14.172 12.8 2.857-11.315 14.171c0 0-12.8-2.857-12.8-2.857zM58.172 37.143l11.315-14.171 12.8 1.372-11.314 14.171c0 0.115-12.8-1.372-12.8-1.372zM75.2 96.8c-4.915 3.772-11.2 6.057-18.057 6.057-1.6 0-3.2-0.115-4.8-0.343-4.685-1.029-8.343-5.372-8.343-10.514 0-0.228 0-0.572 0-0.8 3.886-11.657 10.172-21.714 18.4-29.714 8.343-10.628 18.285-19.543 29.372-26.628 5.486-4 11.772-6.286 18.514-6.286 1.6 0 3.2 0.115 4.8 0.343 4.686 1.029 8.343 5.372 8.343 10.514 0 0.228 0 0.572 0 0.8-3.885 11.657-10.171 21.714-18.4 29.714-8.343 10.628-18.285 19.543-29.371 26.628l-0.457 0.228zM104.915 41.486c-0.8-0.228-1.715-0.343-2.629-0.343-2.857 0-5.486 1.257-7.314 3.2-7.772 5.486-14.285 12.115-19.657 19.657-5.943 6.514-11.2 13.486-15.428 21.029-0.343 3.428-0.343 6.171 2.514 6.171 3.657-0.457 7.085-1.486 10.171-2.971 7.543-5.486 14.057-12 19.428-19.543 5.943-6.514 11.2-13.486 15.428-21.029 0.343-3.428 0.343-6.171-2.514-6.171v0zM156 78.286c-8.343 10.514-18.172 19.543-29.257 26.628-5.486 4-11.772 6.286-18.514 6.286-1.6 0-3.2-0.115-4.8-0.343-4.686-0.685-8.457-4.8-8.457-9.829 0-0.572 0-1.029 0.115-1.6 3.772-11.657 10.171-21.714 18.4-29.714 8.343-10.628 18.286-19.543 29.371-26.628 5.486-4 11.772-6.286 18.514-6.286 1.6 0 3.2 0.115 4.8 0.343 4.685 1.029 8.343 5.372 8.343 10.514 0 0.228 0 0.572 0 0.8-3.886 11.772-10.286 21.829-18.514 29.829v0zM156 49.943c-0.8-0.228-1.714-0.343-2.629-0.343-2.857 0-5.486 1.257-7.315 3.2-7.772 5.486-14.286 12.115-19.657 19.657-5.943 6.514-11.2 13.486-15.428 21.029-0.343 3.428-0.343 6.171 2.514 6.171 3.772-0.685 7.085-1.714 10.285-2.971 7.314-5.372 13.943-12 19.314-19.428 5.943-6.514 11.2-13.486 15.429-21.029 0.343-3.428 0.343-6.286-2.514-6.286v0z" />
<glyph unicode="&#xf015;" glyph-name="home" data-tags="home" horiz-adv-x="476" d="M402.286 192v-137.143q0-7.428-5.428-12.857t-12.857-5.428h-109.714v109.714h-73.143v-109.714h-109.715q-7.428 0-12.857 5.428t-5.428 12.857v137.143q0 0.286 0.143 0.857t0.143 0.857l164.286 135.428 164.285-135.428q0.286-0.572 0.286-1.714zM466 211.714l-17.714-21.143q-2.286-2.572-6-3.143h-0.857q-3.714 0-6 2l-197.714 164.857-197.714-164.857q-3.428-2.286-6.857-2-3.715 0.572-6 3.143l-17.715 21.143q-2.285 2.857-2 6.714t3.143 6.143l205.428 171.143q9.143 7.428 21.714 7.428t21.714-7.428l69.714-58.286v55.714q0 4 2.572 6.572t6.572 2.572h54.857q4 0 6.572-2.572t2.572-6.572v-116.572l62.572-52q2.857-2.286 3.143-6.143t-2-6.714z" />
<glyph unicode="&#xf02d;" glyph-name="book" data-tags="book" horiz-adv-x="476" d="M468.286 338.857q11.428-16.285 5.143-36.857l-78.572-258.857q-5.428-18.286-21.857-30.714t-35-12.428h-263.714q-22 0-42.428 15.286t-28.428 37.572q-6.857 19.143-0.571 36.286 0 1.143 0.857 7.714t1.143 10.572q0.285 2.286-0.857 6.143t-0.857 5.572q0.571 3.143 2.285 6t4.715 6.714 4.714 6.714q6.572 10.857 12.857 26.143t8.572 26.143q0.857 2.857 0.143 8.572t-0.143 8q0.857 3.143 4.857 8t4.857 6.572q6 10.286 12 26.286t7.143 25.714q0.285 2.571-0.715 9.143t0.143 8q1.143 3.714 6.285 8.714t6.285 6.429q5.428 7.428 12.143 24.143t7.857 27.572q0.285 2.286-0.857 7.286t-0.572 7.571q0.572 2.286 2.572 5.143t5.143 6.572 4.857 6q2.285 3.428 4.715 8.714t4.285 10 4.572 10.286 5.572 9.143 7.571 6.714 10.286 3.286 13.572-1.571l-0.286-0.857q10.857 2.572 14.572 2.572h217.428q21.143 0 32.572-16t5.143-37.143l-78.286-258.857q-10.286-34-20.428-43.857t-36.714-9.857h-248.286q-7.715 0-10.857-4.286-3.143-4.572-0.285-12.286 6.857-20 41.143-20h263.714q8.286 0 16 4.428t10 11.857l85.714 282q2 6.286 1.428 16.285 10.857-4.285 16.857-12.285zM164.286 338.286q-1.143-3.714 0.571-6.428t5.714-2.714h173.714q3.714 0 7.286 2.714t4.714 6.428l6 18.285q1.143 3.715-0.572 6.429t-5.714 2.714h-173.714q-3.714 0-7.286-2.714t-4.714-6.429zM140.571 265.143q-1.143-3.714 0.571-6.428t5.714-2.714h173.714q3.714 0 7.286 2.714t4.714 6.428l6 18.286q1.143 3.714-0.572 6.428t-5.714 2.714h-173.714q-3.714 0-7.286-2.714t-4.714-6.428z" />
<glyph unicode="&#xf030;" glyph-name="camera" data-tags="camera" horiz-adv-x="549" d="M274.286 283.429q34 0 58.143-24.143t24.143-58.143-24.143-58.143-58.143-24.143-58.143 24.143-24.143 58.143 24.143 58.143 58.143 24.143zM475.428 402.286q30.286 0 51.715-21.428t21.428-51.714v-256q0-30.286-21.428-51.714t-51.714-21.428h-402.286q-30.285 0-51.715 21.428t-21.428 51.714v256q0 30.286 21.428 51.714t51.715 21.428h64l14.572 38.857q5.428 14 19.857 24.143t29.571 10.143h146.286q15.143 0 29.572-10.143t19.857-24.143l14.572-38.857h64zM274.286 73.143q52.857 0 90.428 37.572t37.572 90.428-37.572 90.428-90.428 37.572-90.428-37.572-37.572-90.428 37.572-90.428 90.428-37.572z" />
<glyph unicode="&#xf03e;" glyph-name="picture" data-tags="picture" horiz-adv-x="549" d="M182.857 310.857q0-22.857-16-38.857t-38.857-16-38.857 16-16 38.857 16 38.857 38.857 16 38.857-16 16-38.857zM475.428 201.143v-128h-402.286v54.857l91.428 91.428 45.714-45.714 146.286 146.286zM502.857 402.286h-457.143q-3.715 0-6.428-2.714t-2.715-6.428v-347.428q0-3.714 2.715-6.428t6.428-2.714h457.143q3.714 0 6.428 2.714t2.714 6.428v347.428q0 3.714-2.714 6.428t-6.428 2.714zM548.572 393.143v-347.428q0-18.857-13.428-32.286t-32.286-13.428h-457.143q-18.857 0-32.285 13.428t-13.428 32.286v347.428q0 18.857 13.428 32.286t32.285 13.428h457.143q18.857 0 32.286-13.428t13.428-32.286z" />
<glyph unicode="&#xf041;" glyph-name="map-marker" data-tags="map-marker" horiz-adv-x="293" d="M219.429 292.572q0 30.286-21.429 51.715t-51.714 21.428-51.715-21.428-21.428-51.714 21.428-51.714 51.715-21.428 51.714 21.428 21.428 51.714zM292.572 292.572q0-31.143-9.428-51.143l-104-221.143q-4.572-9.428-13.572-14.857t-19.286-5.428-19.285 5.428-13.285 14.857l-104.285 221.143q-9.428 20-9.428 51.143 0 60.571 42.857 103.428t103.428 42.857 103.428-42.857 42.857-103.428z" />
<glyph unicode="&#xf053;" glyph-name="chevron-left" data-tags="chevron-left" horiz-adv-x="329" d="M212 26l-186.286 186q-10.572 10.572-10.572 25.857t10.572 25.857l186.286 186q10.572 10.571 25.857 10.571t25.857-10.571l21.428-21.429q10.572-10.571 10.572-25.857t-10.572-25.857l-138.857-138.857 138.857-138.571q10.572-10.857 10.572-26t-10.572-25.714l-21.428-21.428q-10.572-10.572-25.857-10.572t-25.857 10.572z" />
<glyph unicode="&#xf054;" glyph-name="chevron-right" data-tags="chevron-right" horiz-adv-x="329" d="M314 237.714q0-14.857-10.572-26l-186.286-186q-10.572-10.572-25.715-10.572t-25.715 10.572l-21.715 21.428q-10.572 11.143-10.572 26 0 15.143 10.572 25.714l138.857 138.857-138.857 138.572q-10.572 11.143-10.572 26 0 15.143 10.572 25.714l21.715 21.428q10.285 10.857 25.715 10.857t25.715-10.857l186.286-186q10.572-10.571 10.572-25.714z" />
<glyph unicode="&#xf059;" glyph-name="question" data-tags="question-circle" d="M256 82.286v54.857q0 4-2.571 6.572t-6.571 2.572h-54.857q-4 0-6.571-2.572t-2.571-6.572v-54.857q0-4 2.571-6.572t6.572-2.572h54.857q4 0 6.571 2.572t2.572 6.572zM329.143 274.286q0 25.143-15.857 46.572t-39.572 33.143-48.572 11.714q-69.428 0-106-60.857-4.285-6.857 2.285-12l37.715-28.572q2-1.714 5.428-1.714 4.572 0 7.143 3.428 15.143 19.429 24.571 26.286 9.714 6.857 24.572 6.857 13.714 0 24.428-7.428t10.714-16.857q0-10.857-5.714-17.428t-19.428-12.857q-18-8-33-24.714t-15-35.857v-10.286q0-4 2.571-6.572t6.571-2.572h54.857q4 0 6.571 2.572t2.572 6.572q0 5.428 6.143 14.143t15.572 14.143q9.143 5.143 14 8.143t13.143 10 12.714 13.714 8 17.286 3.572 23.143zM438.857 219.429q0-59.714-29.428-110.143t-79.857-79.857-110.143-29.428-110.143 29.428-79.857 79.857-29.428 110.143 29.428 110.143 79.857 79.857 110.143 29.428 110.143-29.428 79.857-79.857 29.428-110.143z" />
<glyph unicode="&#xf05a;" glyph-name="info-sign" data-tags="info-circle" horiz-adv-x="439" d="M292.572 82.286v45.714q0 4-2.572 6.572t-6.572 2.572h-27.428v146.286q0 4-2.571 6.572t-6.571 2.571h-91.428q-4 0-6.572-2.571t-2.571-6.572v-45.714q0-4 2.571-6.572t6.572-2.572h27.428v-91.428h-27.428q-4 0-6.572-2.572t-2.571-6.572v-45.714q0-4 2.571-6.572t6.572-2.572h128q4 0 6.572 2.572t2.572 6.572zM256 338.286v45.715q0 4-2.571 6.571t-6.571 2.572h-54.857q-4 0-6.571-2.572t-2.571-6.571v-45.715q0-4 2.571-6.571t6.572-2.572h54.857q4 0 6.571 2.572t2.572 6.572zM438.857 219.429q0-59.714-29.428-110.143t-79.857-79.857-110.143-29.428-110.143 29.428-79.857 79.857-29.428 110.143 29.428 110.143 79.857 79.857 110.143 29.428 110.143-29.428 79.857-79.857 29.428-110.143z" />
<glyph unicode="&#xf05d;" glyph-name="check-circle" data-tags="check-circle-o" d="M334.572 243.143l-120.572-120.572q-5.428-5.428-12.857-5.428t-12.857 5.428l-84 84q-5.428 5.428-5.428 12.857t5.428 12.857l29.143 29.143q5.429 5.428 12.857 5.428t12.857-5.428l42-42 78.571 78.572q5.428 5.428 12.857 5.428t12.857-5.428l29.143-29.143q5.428-5.428 5.428-12.857t-5.428-12.857zM374.857 219.429q0 42.286-20.857 78t-56.572 56.572-78 20.857-78-20.857-56.572-56.572-20.857-78 20.857-78 56.572-56.572 78-20.857 78 20.857 56.572 56.572 20.857 78zM438.857 219.429q0-59.714-29.428-110.143t-79.857-79.857-110.143-29.428-110.143 29.428-79.857 79.857-29.428 110.143 29.428 110.143 79.857 79.857 110.143 29.428 110.143-29.428 79.857-79.857 29.428-110.143z" />
<glyph unicode="&#xf067;" glyph-name="remove" data-tags="times" horiz-adv-x="403" d="M370.857 97.714q0-11.428-8-19.428l-38.857-38.857q-8-8-19.428-8t-19.428 8l-84 84-84-84q-8-8-19.428-8t-19.428 8l-38.857 38.857q-8 8-8 19.428t8 19.428l84 84-84 84q-8 8-8 19.428t8 19.428l38.857 38.857q8 8 19.428 8t19.428-8l84-84 84 84q8 8 19.428 8t19.428-8l38.857-38.857q8-8 8-19.428t-8-19.428l-84-84 84-84q8-8 8-19.428z" />
<glyph unicode="&#xf073;" glyph-name="calendar" data-tags="calendar" horiz-adv-x="476" d="M36.572 0h82.285v82.286h-82.285v-82.286zM137.143 0h91.429v82.286h-91.428v-82.286zM36.572 100.572h82.285v91.428h-82.285v-91.428zM137.143 100.572h91.429v91.428h-91.428v-91.428zM36.572 210.286h82.285v82.286h-82.285v-82.286zM246.857 0h91.429v82.286h-91.428v-82.286zM137.143 210.286h91.429v82.286h-91.428v-82.286zM356.572 0h82.286v82.286h-82.286v-82.286zM246.857 100.572h91.429v91.428h-91.428v-91.428zM146.286 347.429v82.285q0 3.715-2.714 6.429t-6.428 2.714h-18.285q-3.715 0-6.428-2.714t-2.715-6.429v-82.285q0-3.714 2.715-6.428t6.428-2.714h18.285q3.714 0 6.428 2.714t2.714 6.428zM356.572 100.572h82.286v91.428h-82.286v-91.428zM246.857 210.286h91.429v82.286h-91.428v-82.286zM356.572 210.286h82.286v82.286h-82.286v-82.286zM365.714 347.429v82.285q0 3.715-2.714 6.429t-6.428 2.714h-18.286q-3.714 0-6.428-2.714t-2.714-6.429v-82.285q0-3.714 2.714-6.428t6.428-2.714h18.286q3.714 0 6.428 2.714t2.714 6.428zM475.428 365.714v-365.714q0-14.857-10.857-25.714t-25.714-10.857h-402.286q-14.857 0-25.715 10.857t-10.857 25.714v365.714q0 14.857 10.857 25.714t25.715 10.857h36.572v27.428q0 18.857 13.428 32.285t32.285 13.429h18.285q18.857 0 32.285-13.429t13.428-32.285v-27.428h109.714v27.428q0 18.857 13.428 32.285t32.286 13.429h18.286q18.857 0 32.286-13.429t13.428-32.285v-27.428h36.572q14.857 0 25.714-10.857t10.857-25.714z" />
<glyph unicode="&#xf080;" glyph-name="bar-chart" data-tags="bar-chart-o" horiz-adv-x="549" d="M146.286 182.857v-109.714h-73.143v109.714h73.143zM256 329.143v-256h-73.143v256h73.143zM365.714 256v-182.857h-73.143v182.857h73.143zM475.428 365.714v-292.571h-73.143v292.572h73.143zM512 45.714v347.428q0 3.714-2.714 6.428t-6.428 2.714h-457.143q-3.715 0-6.428-2.714t-2.715-6.428v-347.428q0-3.714 2.715-6.428t6.428-2.714h457.143q3.714 0 6.428 2.714t2.714 6.428zM548.572 393.143v-347.428q0-18.857-13.428-32.286t-32.286-13.428h-457.143q-18.857 0-32.285 13.428t-13.428 32.286v347.428q0 18.857 13.428 32.286t32.285 13.428h457.143q18.857 0 32.286-13.428t13.428-32.286z" />
<glyph unicode="&#xf08e;" glyph-name="external-link" data-tags="external-link" d="M402.286 173.715v-91.428q0-34-24.143-58.143t-58.143-24.143h-237.714q-34 0-58.143 24.143t-24.143 58.143v237.714q0 34 24.143 58.143t58.143 24.143h201.143q4 0 6.572-2.572t2.572-6.572v-18.285q0-4-2.572-6.572t-6.572-2.572h-201.143q-18.857 0-32.285-13.428t-13.428-32.286v-237.714q0-18.857 13.428-32.286t32.285-13.428h237.715q18.857 0 32.286 13.428t13.428 32.286v91.428q0 4 2.572 6.572t6.572 2.572h18.286q4 0 6.572-2.572t2.572-6.572zM512 420.572v-146.286q0-7.428-5.428-12.857t-12.857-5.428-12.857 5.428l-50.286 50.286-186.286-186.286q-2.857-2.857-6.572-2.857t-6.572 2.857l-32.572 32.572q-2.857 2.857-2.857 6.572t2.857 6.572l186.286 186.286-50.286 50.286q-5.428 5.428-5.428 12.857t5.428 12.857 12.857 5.429h146.286q7.428 0 12.857-5.429t5.428-12.857z" />
<glyph unicode="&#xf0ac;" glyph-name="globe" data-tags="globe" d="M256 438.857q59.714 0 110.143-29.428t79.857-79.857 29.428-110.143-29.428-110.143-79.857-79.857-110.143-29.428-110.143 29.428-79.857 79.857-29.428 110.143 29.428 110.143 79.857 79.857 110.143 29.428zM334.286 290q-0.572-0.286-2.714-2.714t-3.857-2.714q0.572 0 1.286 1.429t1.428 3.143 1 2q1.714 2 6.286 4.286 4 1.714 14.857 3.429 9.714 2.286 14.572-3.143-0.572 0.572 2.714 3.714t4.143 3.429q0.857 0.571 4.286 1.286t4.286 2.143l0.572 6.286q-3.428-0.286-5 2t-1.857 6q0-0.571-1.714-2.286 0 2-1.286 2.286t-3.286-0.286-2.572-0.286q-2.857 0.857-4.286 2.143t-2.286 4.714-1.143 4.286q-0.572 1.428-2.714 3t-2.714 3q-0.286 0.571-0.714 1.571t-0.857 1.857-1.143 1.571-1.572 0.714-2-1.428-2.143-2.857-1.286-1.428q-0.857 0.571-1.714 0.428t-1.286-0.286-1.286-0.857-1.428-1q-0.857-0.572-2.428-0.857t-2.428-0.571q4.286 1.428-0.286 3.143-2.857 1.143-4.572 0.857 2.572 1.143 2.143 3.428t-2.428 4h1.428q-0.286 1.143-2.428 2.428t-5 2.429-3.714 1.714q-2.286 1.428-9.714 2.714t-9.428 0.143q-1.428-1.714-1.286-3t1.143-4 1-3.572q0.286-1.714-1.572-3.714t-1.857-3.428q0-2 4-4.428t2.857-6.143q-0.857-2.286-4.572-4.571t-4.572-3.429q-1.428-2.286-0.428-5.286t3-4.714q0.572-0.571 0.428-1.143t-1-1.286-1.572-1.143-1.857-1l-0.857-0.571q-3.143-1.429-5.857 1.714t-3.857 7.428q-2 7.143-4.572 8.572-6.572 2.286-8.286-0.286-1.428 3.714-11.714 7.428-7.143 2.571-16.572 1.143 1.714 0.286 0 4.286-2 4.286-5.428 3.429 0.857 1.714 1.143 5t0.286 3.857q0.857 3.715 3.429 6.572 0.286 0.286 2 2.428t2.714 3.857 0.143 1.714q10-1.143 14.285 3.143 1.428 1.428 3.286 4.857t3 4.857q2.572 1.715 4 1.572t4.143-1.572 4.143-1.428q4-0.285 4.428 3.143t-2.143 5.714q3.428-0.286 0.857 4.857-1.428 2-2.286 2.571-3.428 1.143-7.714-1.428-2.286-1.143 0.572-2.286-0.286 0.286-2.714-3t-4.714-5-4.572 1.428q-0.286 0.286-1.572 3.857t-2.714 3.857q-2.286 0-4.572-4.286 0.857 2.286-3.143 4.286t-6.857 2.285q5.428 3.428-2.286 7.715-2 1.143-5.857 1.428t-5.571-1.143q-1.429-2-1.571-3.285t1.429-2.286 3-1.572 3.286-1.143 2.429-0.857q4-2.857 2.286-4-0.571-0.286-2.429-1t-3.286-1.286-1.714-1.143q-0.857-1.143 0-4t-0.571-4q-1.429 1.428-2.571 5t-2 4.714q2-2.572-7.143-1.714l-2.857 0.286q-1.143 0-4.572-0.572t-5.857-0.286-3.857 2.286q-1.143 2.285 0 5.714 0.286 1.143 1.143 0.572-1.143 0.857-3.143 2.714t-2.857 2.428q-13.143-4.285-26.857-11.714 1.714-0.286 3.429 0.286 1.429 0.572 3.714 1.857t2.857 1.572q9.714 4 12 2l1.429 1.428q4-4.572 5.714-7.143-2 1.143-8.571 0.286-5.714-1.715-6.286-3.429 2-3.428 1.429-5.143-1.143 0.857-3.286 2.857t-4.143 3.143-4.286 1.428q-4.572 0-6.286-0.286-41.715-22.857-67.143-63.428 2-2 3.428-2.286 1.143-0.286 1.428-2.572t0.715-3.143 3.285 0.857q2.572-2.286 0.857-5.428 0.285 0.286 12.572-7.714 5.428-4.857 6-6 0.857-3.143-2.857-5.143-0.285 0.572-2.572 2.572t-2.572 1.143q-0.857-1.428 0.143-5.286t3-3.571q-2 0-2.715-4.572t-0.715-10.143-0.285-6.714l0.572-0.286q-0.857-3.428 1.572-9.857t6.143-5.572q-3.715-0.857 5.714-12.286 1.714-2.286 2.286-2.572 0.857-0.571 3.429-2.143t4.286-2.857 2.857-3q1.143-1.428 2.857-6.428t4-6.714q-0.571-1.714 2.714-5.714t3-6.572q-0.286 0-0.714-0.286t-0.714-0.286q0.857-2 4.429-4t4.428-3.714q0.286-0.857 0.571-2.857t0.857-3.143 2.286-0.572q0.571 5.714-6.857 17.714-4.286 7.143-4.857 8.286-0.857 1.428-1.571 4.428t-1.286 4.143q0.571 0 1.714-0.428t2.429-1 2.143-1.143 0.571-0.857q-0.857-2 0.571-5t3.429-5.286 4.857-5.428 3.429-3.714q1.714-1.714 4-5.572t0-3.857q2.571 0 5.714-2.857t4.857-5.714q1.429-2.286 2.286-7.428t1.429-6.857q0.571-2 2.429-3.857t3.571-2.714l4.572-2.286t3.714-2q1.429-0.572 5.286-3t6.143-3.286q2.857-1.143 4.571-1.143t4.143 0.714 3.857 1q4.286 0.572 8.286-4.286t6-6q10.286-5.428 15.714-3.143-0.572-0.286 0.143-2.143t2.286-4.428 2.572-4.143 1.572-2.428q1.428-1.714 5.143-4.286t5.143-4.286q1.714 1.143 2 2.572-0.857-2.286 2-5.714t5.143-2.857q4 0.857 4 9.143-8.857-4.286-14 5.143 0 0.286-0.714 1.572t-1.143 2.428-0.714 2.428 0 2.143 1.428 0.857q2.572 0 2.857 1t-0.572 3.572-1.143 3.714q-0.286 2.286-3.143 5.714t-3.428 4.286q-1.428-2.572-4.572-2.286t-4.572 2.572q0-0.286-0.428-1.572t-0.428-1.857q-3.714 0-4.286 0.286 0.286 0.857 0.714 5t1 6.428q0.286 1.143 1.572 3.428t2.143 4.143 1.143 3.572-1.286 2.714-5 0.714q-5.428-0.286-7.428-5.714-0.286-0.857-0.857-3t-1.429-3.286-2.571-2q-2-0.857-6.857-0.572t-6.857 1.428q-3.714 2.286-6.429 8.286t-2.714 10.572q0 2.857 0.714 7.572t0.857 7.143-1.571 7q0.857 0.572 2.571 2.714t2.857 3q0.571 0.286 1.286 0.428t1.286 0 1.143 0.428 0.857 1.714q-0.286 0.286-1.143 0.857-0.857 0.857-1.143 0.857 2-0.857 8.143 0.428t7.857-0.428q4.286-3.143 6.286 0.572 0 0.286-0.714 2.714t-0.143 3.857q1.429-7.714 8.285-2.572 0.857-0.857 4.428-1.428t5-1.428q0.857-0.572 2-1.572t1.572-1.286 1.428 0.143 2.428 1.857q2.857-4 3.428-6.857 3.143-11.428 5.428-12.572 2-0.857 3.143-0.572t1.286 2.714 0 4-0.428 3.572l-0.286 2.286v5.143l-0.286 2.286q-4.286 0.857-5.286 3.428t0.428 5.286 4.286 5.286q0.286 0.286 2.286 1t4.428 1.857 3.572 2.286q6 5.429 4.286 10 2 0 3.143 2.572-0.286 0-1.428 0.857t-2.143 1.429-1.286 0.571q2.572 1.429 0.572 4.572 1.428 0.857 2.143 3.143t2.143 2.857q2.572-3.429 6-0.572 2 2.286 0.286 4.572 1.428 2 5.857 3t5.286 2.714q2-0.572 2.286 0.571t0.286 3.429 0.857 3.428q1.143 1.429 4.286 2.572t3.714 1.428l4.857 3.143q0.857 1.143 0 1.143 5.143-0.571 8.857 3.143 2.857 3.143-1.714 5.714 0.857 1.714-0.857 2.714t-4.286 1.571q0.857 0.286 3.286 0.143t3 0.428q4.286 2.857-2 4.572-4.857 1.428-12.286-3.429zM287.714 39.429q58.857 10.286 100.286 54-0.857 0.857-3.572 1.286t-3.572 1q-5.143 2-6.857 2.286 0.286 2-0.714 3.714t-2.286 2.572-3.572 2.286-3.143 2q-0.572 0.572-2 1.714t-2 1.572-2.143 1.286-2.428 0.572-2.857-0.286l-0.857-0.286q-0.857-0.286-1.572-0.714t-1.572-0.857-1.143-0.857 0-0.714q-6 4.857-10.286 6.286-1.428 0.286-3.143 1.572t-3 2-2.857 0.428-3.286-2q-1.428-1.428-1.714-4.286t-0.572-3.714q-2 1.428 0 5t0.572 5.286q-0.857 1.714-3 1.286t-3.428-1.286-3.286-2.428-2.572-1.857-2.428-1.572-2.428-2.143q-0.857-1.143-1.714-3.428t-1.428-3.143q-0.572 1.143-3.286 1.857t-2.714 1.572q0.572-2.857 1.143-10t1.428-10.857q2-8.857-3.428-13.714-7.714-7.143-8.286-11.428-1.143-6.286 3.428-7.428 0-2-2.286-5.857t-2-6.143q0-1.714 0.572-4.572z" />
<glyph unicode="&#xf0c9;" glyph-name="reorder" data-tags="bars" d="M438.857 91.429v-36.572q0-7.428-5.428-12.857t-12.857-5.428h-402.286q-7.428 0-12.857 5.428t-5.428 12.857v36.572q0 7.428 5.428 12.857t12.857 5.428h402.286q7.428 0 12.857-5.428t5.428-12.857zM438.857 237.714v-36.572q0-7.428-5.428-12.857t-12.857-5.428h-402.286q-7.428 0-12.857 5.428t-5.428 12.857v36.572q0 7.428 5.428 12.857t12.857 5.429h402.286q7.428 0 12.857-5.428t5.428-12.857zM438.857 384v-36.572q0-7.428-5.428-12.857t-12.857-5.428h-402.286q-7.428 0-12.857 5.428t-5.428 12.857v36.572q0 7.428 5.428 12.857t12.857 5.428h402.286q7.428 0 12.857-5.428t5.428-12.857z" />
<glyph unicode="&#xf0ce;" glyph-name="table" data-tags="table" horiz-adv-x="476" d="M146.286 82.286v54.857q0 4-2.571 6.572t-6.571 2.572h-91.428q-4 0-6.572-2.572t-2.572-6.572v-54.857q0-4 2.572-6.572t6.572-2.572h91.428q4 0 6.572 2.572t2.571 6.572zM146.286 192v54.857q0 4-2.571 6.572t-6.571 2.571h-91.428q-4 0-6.572-2.571t-2.572-6.572v-54.857q0-4 2.572-6.572t6.572-2.572h91.428q4 0 6.572 2.572t2.571 6.572zM292.572 82.286v54.857q0 4-2.572 6.572t-6.572 2.572h-91.428q-4 0-6.572-2.572t-2.571-6.572v-54.857q0-4 2.571-6.572t6.572-2.572h91.428q4 0 6.572 2.572t2.572 6.572zM146.286 301.714v54.857q0 4-2.571 6.572t-6.571 2.572h-91.428q-4 0-6.572-2.572t-2.572-6.572v-54.857q0-4 2.572-6.572t6.572-2.572h91.428q4 0 6.572 2.572t2.571 6.572zM292.572 192v54.857q0 4-2.572 6.572t-6.572 2.571h-91.428q-4 0-6.572-2.571t-2.571-6.572v-54.857q0-4 2.571-6.572t6.572-2.572h91.428q4 0 6.572 2.572t2.572 6.572zM438.857 82.286v54.857q0 4-2.572 6.572t-6.572 2.572h-91.428q-4 0-6.572-2.572t-2.572-6.572v-54.857q0-4 2.572-6.572t6.572-2.572h91.428q4 0 6.572 2.572t2.572 6.572zM292.572 301.714v54.857q0 4-2.572 6.572t-6.572 2.572h-91.428q-4 0-6.572-2.572t-2.571-6.572v-54.857q0-4 2.571-6.572t6.572-2.572h91.428q4 0 6.572 2.572t2.572 6.572zM438.857 192v54.857q0 4-2.572 6.572t-6.572 2.571h-91.428q-4 0-6.572-2.571t-2.572-6.572v-54.857q0-4 2.572-6.572t6.572-2.572h91.428q4 0 6.572 2.572t2.572 6.572zM438.857 301.714v54.857q0 4-2.572 6.572t-6.572 2.572h-91.428q-4 0-6.572-2.572t-2.572-6.572v-54.857q0-4 2.572-6.572t6.572-2.572h91.428q4 0 6.572 2.572t2.572 6.572zM475.428 393.143v-310.857q0-18.857-13.428-32.286t-32.286-13.428h-384q-18.857 0-32.285 13.428t-13.428 32.286v310.857q0 18.857 13.428 32.286t32.285 13.428h384q18.857 0 32.286-13.428t13.428-32.286z" />
<glyph unicode="&#xf102;" glyph-name="angle-double-up" data-tags="angle-double-up" horiz-adv-x="329" d="M22 100.572q0 3.714 2.857 6.572l133.143 133.143q2.857 2.857 6.572 2.857t6.572-2.857l133.143-133.143q2.857-2.857 2.857-6.572t-2.857-6.572l-14.286-14.286q-2.857-2.857-6.572-2.857t-6.572 2.857l-112.286 112.286-112.285-112.286q-2.857-2.857-6.572-2.857t-6.572 2.857l-14.285 14.286q-2.857 2.857-2.857 6.572zM22 210.286q0 3.714 2.857 6.572l133.143 133.143q2.857 2.857 6.572 2.857t6.572-2.857l133.143-133.143q2.857-2.857 2.857-6.572t-2.857-6.572l-14.286-14.286q-2.857-2.857-6.572-2.857t-6.572 2.857l-112.286 112.286-112.285-112.286q-2.857-2.857-6.572-2.857t-6.572 2.857l-14.285 14.286q-2.857 2.857-2.857 6.572z" />
<glyph unicode="&#xf103;" glyph-name="angle-double-down" data-tags="angle-double-down" horiz-adv-x="329" d="M22 228.572q0 3.714 2.857 6.572l14.285 14.286q2.857 2.857 6.572 2.857t6.572-2.857l112.285-112.286 112.285 112.286q2.857 2.857 6.572 2.857t6.572-2.857l14.286-14.286q2.857-2.857 2.857-6.572t-2.857-6.572l-133.143-133.143q-2.857-2.857-6.571-2.857t-6.572 2.857l-133.143 133.143q-2.857 2.857-2.857 6.572zM22 338.286q0 3.714 2.857 6.572l14.285 14.285q2.857 2.857 6.572 2.857t6.572-2.857l112.285-112.285 112.285 112.285q2.857 2.857 6.572 2.857t6.572-2.857l14.286-14.285q2.857-2.857 2.857-6.572t-2.857-6.572l-133.143-133.143q-2.857-2.857-6.571-2.857t-6.572 2.857l-133.143 133.143q-2.857 2.857-2.857 6.572z" />
<glyph unicode="&#xf104;" glyph-name="angle-left" data-tags="angle-left" horiz-adv-x="183" d="M179.143 320q0-3.714-2.857-6.571l-112.285-112.286 112.285-112.286q2.857-2.857 2.857-6.572t-2.857-6.572l-14.286-14.286q-2.857-2.857-6.572-2.857t-6.572 2.857l-133.143 133.143q-2.857 2.857-2.857 6.572t2.857 6.572l133.143 133.143q2.857 2.857 6.572 2.857t6.572-2.857l14.286-14.286q2.857-2.857 2.857-6.571z" />
<glyph unicode="&#xf105;" glyph-name="angle-right" data-tags="angle-right" horiz-adv-x="183" d="M170 201.143q0-3.714-2.857-6.572l-133.143-133.143q-2.857-2.857-6.572-2.857t-6.572 2.857l-14.286 14.286q-2.857 2.857-2.857 6.572t2.857 6.572l112.285 112.286-112.285 112.286q-2.857 2.857-2.857 6.572t2.857 6.572l14.285 14.286q2.857 2.857 6.572 2.857t6.572-2.857l133.143-133.143q2.857-2.857 2.857-6.572z" />
<glyph unicode="&#xf10c;" glyph-name="circle" data-tags="circle-o" d="M219.429 374.857q-42.285 0-78-20.857t-56.572-56.572-20.857-78 20.857-78 56.572-56.572 78-20.857 78 20.857 56.572 56.572 20.857 78-20.857 78-56.572 56.572-78 20.857zM438.857 219.429q0-59.714-29.428-110.143t-79.857-79.857-110.143-29.428-110.143 29.428-79.857 79.857-29.428 110.143 29.428 110.143 79.857 79.857 110.143 29.428 110.143-29.428 79.857-79.857 29.428-110.143z" />
<glyph unicode="&#xf144;" glyph-name="play-sign" data-tags="play-circle" d="M256 438.857q59.714 0 110.143-29.428t79.857-79.857 29.428-110.143-29.428-110.143-79.857-79.857-110.143-29.428-110.143 29.428-79.857 79.857-29.428 110.143 29.428 110.143 79.857 79.857 110.143 29.428zM365.714 203.714q9.143 5.143 9.143 15.714t-9.143 15.714l-155.429 91.428q-8.857 5.428-18.285 0.286-9.143-5.428-9.143-16v-182.857q0-10.572 9.143-16 4.572-2.286 9.143-2.286 4.857 0 9.143 2.572z" />
<glyph unicode="&#xf155;" glyph-name="graduation-cap, mortar-board" data-tags="graduation-cap, mortar-board" horiz-adv-x="658" d="M506.857 236.572l5.143-90.285q1.143-19.714-23.428-36.572t-67.143-26.714-92.286-9.857-92.286 9.857-67.143 26.714-23.429 36.572l5.143 90.286 164-51.714q6.286-2 13.714-2t13.714 2zM658.285 329.143q0-6.572-6.285-8.857l-320-100.571q-1.143-0.286-2.857-0.286t-2.857 0.286l-186.286 58.857q-12.285-9.714-20.285-31.857t-9.715-51q18-10.286 18-31.143 0-19.714-16.572-30.572l16.572-123.714q0.571-4-2.285-7.143-2.572-3.143-6.857-3.143h-54.857q-4.285 0-6.857 3.143-2.857 3.143-2.285 7.143l16.572 123.714q-16.572 10.857-16.572 30.572 0 20.857 18.572 31.714 3.143 59.143 28 94.286l-95.143 29.714q-6.285 2.286-6.285 8.857t6.285 8.857l320 100.572q1.143 0.285 2.857 0.285t2.857-0.285l320-100.572q6.285-2.286 6.285-8.857z" />
<glyph unicode="&#xf15b;" glyph-name="file" data-tags="file" horiz-adv-x="366" d="M365.714 256v-228.571q0-11.428-8-19.428t-19.428-8h-310.857q-11.428 0-19.428 8t-8 19.428v384q0 11.428 8 19.428t19.428 8h155.429v-155.428q0-11.428 8-19.428t19.429-8h155.429zM364.857 292.572h-145.429v145.429q23.429-4.286 37.715-18.572l89.143-89.143q14.286-14.286 18.572-37.714z" />
<glyph unicode="&#xf1ea;" glyph-name="newspaper" data-tags="newspaper-o" horiz-adv-x="585" d="M292.572 329.143h-109.714v-109.714h109.714v109.714zM329.143 146.286v-36.572h-182.857v36.572h182.857zM329.143 365.714v-182.857h-182.857v182.857h182.857zM512 146.286v-36.572h-146.286v36.572h146.286zM512 219.429v-36.572h-146.286v36.572h146.286zM512 292.572v-36.571h-146.286v36.572h146.286zM512 365.714v-36.571h-146.286v36.571h146.286zM73.143 91.429v274.286h-36.572v-274.286q0-7.428 5.428-12.857t12.857-5.428 12.857 5.428 5.428 12.857zM548.572 91.429v310.857h-438.857v-310.857q0-9.428-3.143-18.286h423.714q7.428 0 12.857 5.428t5.428 12.857zM585.143 438.857v-347.428q0-22.857-16-38.857t-38.857-16h-475.428q-22.857 0-38.857 16t-16 38.857v310.857h73.143v36.571h512z" />
</font>
</defs>
</svg>
