<?xml version="1.0" encoding="utf-8"?>
<!-- Generator: Adobe Illustrator 19.2.1, SVG Export Plug-In . SVG Version: 6.00 Build 0)  -->
<!DOCTYPE svg PUBLIC "-//W3C//DTD SVG 1.1//EN" "http://www.w3.org/Graphics/SVG/1.1/DTD/svg11.dtd">
<svg version="1.1" id="Layer_1" xmlns="http://www.w3.org/2000/svg" xmlns:xlink="http://www.w3.org/1999/xlink" x="0px" y="0px"
	 viewBox="0 0 46.5 36" style="enable-background:new 0 0 46.5 36;" xml:space="preserve">
<style type="text/css">
	.st0{fill:none;}
</style>
<g>
	<path class="st0" d="M17.6,8.1V3V2.4V2.3H7.4C6.6,2.3,6,2.6,5.6,3.2C5.4,3.6,5.2,4,5.2,4.5v0.9v21.9c0,1.2,1,2.2,2.2,2.2h15.5h0.7
		c0.5,0,1-0.3,1.4-0.6c0.5-0.4,0.8-1,0.8-1.7v-16h-5.2C18.9,11.2,17.6,9.8,17.6,8.1z M15.3,10.5c1.9,0,3.4,1.5,3.4,3.4
		c0,1.9-1.5,3.4-3.4,3.4c-1.9,0-3.4-1.5-3.4-3.4C11.9,12,13.4,10.5,15.3,10.5z M22.4,19.7v6.8H8.5v-6.8c0-1.1,1.2-2,2.6-2h8.7
		C21.2,17.7,22.4,18.6,22.4,19.7z"/>
	<path class="st0" d="M3,27.3V6C2.9,6.1,2.8,6.2,2.7,6.3C2.4,6.6,2.2,7.1,2.2,7.6v0.8v22c0,1.2,1,2.2,2.2,2.2h15.5h0.8
		c0.5,0,0.9-0.2,1.3-0.5c0.1-0.1,0.3-0.3,0.4-0.4h-15C5,31.7,3,29.7,3,27.3z"/>
	<circle cx="15.3" cy="13.9" r="3.4"/>
	<path d="M11.1,17.7c-1.4,0-2.6,0.9-2.6,2v6.8h13.9v-6.8c0-1.1-1.2-2-2.6-2H11.1z"/>
	<path d="M18.6,0h-0.5H18h-0.6H17H7.4C5.3,0,3.6,1.5,3.1,3.4C1.7,3.8,0.6,5,0.2,6.4C0.1,6.8,0,7.2,0,7.6v1.3v21.5
		c0,2.4,2,4.4,4.4,4.4h14.9h1.3c0.4,0,0.8-0.1,1.2-0.2c1.5-0.4,2.7-1.6,3.1-3.1c1.8-0.6,3.1-2.2,3.1-4.2V11.5v-1.2v-0.1L18.6,0z
		 M22,32.1c-0.4,0.3-0.8,0.5-1.3,0.5h-0.8H4.4c-1.2,0-2.2-1-2.2-2.2v-22V7.6c0-0.5,0.2-1,0.5-1.3C2.8,6.2,2.9,6.1,3,6v21.3
		c0,2.4,2,4.4,4.4,4.4h15C22.3,31.8,22.1,32,22,32.1z M25.8,27.2c0,0.7-0.3,1.3-0.8,1.7c-0.4,0.3-0.9,0.6-1.4,0.6h-0.7H7.4
		c-1.2,0-2.2-1-2.2-2.2V5.4V4.5c0-0.5,0.2-0.9,0.4-1.3c0.4-0.6,1-0.9,1.8-0.9h10.2v0.1V3v5.1c0,1.7,1.3,3.1,3,3.1h5.2V27.2z"/>
</g>
</svg>
