<svg id="Layer_1" data-name="Layer 1" xmlns="http://www.w3.org/2000/svg" viewBox="0 0 46.5 36.1"><defs><style>.cls-1{fill:none;}</style></defs><title>financials_2016_blk2-g</title><path class="cls-1" d="M18.7,6a0.71,0.71,0,0,0,.7.2c0.2,0,.2-0.2.2-0.4a8,8,0,0,0-1.1-1.5,5.85,5.85,0,0,0-1.4-1.4,0.71,0.71,0,0,0-.7-0.2c-0.2,0-.2.2-0.2,0.4a8,8,0,0,0,1.1,1.5A5.85,5.85,0,0,0,18.7,6Z" transform="translate(-0.1)"/><path class="cls-1" d="M25.7,26.9a0.71,0.71,0,0,0,.7.2c0.2,0,.2-0.2.2-0.4a8,8,0,0,0-1.1-1.5,5.85,5.85,0,0,0-1.4-1.4,0.71,0.71,0,0,0-.7-0.2c-0.2,0-.2.2-0.2,0.4a8,8,0,0,0,1.1,1.5A5.85,5.85,0,0,0,25.7,26.9Z" transform="translate(-0.1)"/><path class="cls-1" d="M2.5,20.7a5.92,5.92,0,0,1-.4-0.6v1H2.3C2.5,21,2.6,20.9,2.5,20.7Z" transform="translate(-0.1)"/><polygon class="cls-1" points="12.6 34 19 34 18.1 33 12.6 34"/><path class="cls-1" d="M34.6,25.3a0.71,0.71,0,0,0,.7.2c0.2,0,.2-0.2.2-0.4a8,8,0,0,0-1.1-1.5A5.85,5.85,0,0,0,33,22.2a0.71,0.71,0,0,0-.7-0.2c-0.2,0-.2.1-0.2,0.4a8,8,0,0,0,1.1,1.5A5.85,5.85,0,0,0,34.6,25.3Z" transform="translate(-0.1)"/><path class="cls-1" d="M7.4,9.1l-3-3.6a1.05,1.05,0,0,1-.5.9L3.1,5.6A0.6,0.6,0,0,0,3.4,5a1.41,1.41,0,0,0-.1-0.9L4,4,8.3,9Zm2.1-.3a2.35,2.35,0,0,1-.5-1,5.72,5.72,0,0,1-.1-1.4,1.25,1.25,0,0,0,0-.9,0.86,0.86,0,0,0-.3-0.6,0.63,0.63,0,0,0-.5-0.5,0.66,0.66,0,0,0-.6-0.1q-0.6,0,0,.9l-1,.1A2.05,2.05,0,0,1,6.1,4a0.67,0.67,0,0,1,.7-0.5,2.2,2.2,0,0,1,1.4.2,2.73,2.73,0,0,1,1.2.9,2.65,2.65,0,0,1,.5.6c0.1,0.2.1,0.4,0.2,0.6V6.7a5.64,5.64,0,0,1-.1.7V7.7l1.8-.4,0.8,0.9Zm5-.9-3-3.6a1.05,1.05,0,0,1-.5.9l-0.7-.9a0.92,0.92,0,0,0,.4-0.6,1.41,1.41,0,0,0-.1-0.9l0.5-.1,4.3,5Zm3.4,0.6-0.5-.4a0.53,0.53,0,0,0,.2-0.3,0.91,0.91,0,0,0-.3-0.5l-0.4.1L16,6.5l0.9-.2L17.5,7a6.78,6.78,0,0,1,.6.9A0.45,0.45,0,0,1,17.9,8.5ZM29.3,5.2l-0.8-1L29.4,4l0.8,1Z" transform="translate(-0.1)"/><path class="cls-1" d="M33.9,27.8l-0.5-.4a0.53,0.53,0,0,0,.2-0.3,0.91,0.91,0,0,0-.3-0.5l-0.4.1L32,25.8l0.9-.2,0.6,0.7a6.78,6.78,0,0,1,.6.9A0.45,0.45,0,0,1,33.9,27.8Zm4.8-7.9a2.12,2.12,0,0,1,1.6.4,8.48,8.48,0,0,1,2.1,1.9,5.12,5.12,0,0,1,1.3,2.1,0.76,0.76,0,0,1-.6.8,2.12,2.12,0,0,1-1.6-.4,8.48,8.48,0,0,1-2.1-1.9,5.12,5.12,0,0,1-1.3-2.1A0.7,0.7,0,0,1,38.7,19.9Zm-3.5.6a2.12,2.12,0,0,1,1.6.4,8.48,8.48,0,0,1,2.1,1.9,5.12,5.12,0,0,1,1.3,2.1,0.76,0.76,0,0,1-.6.8,2.12,2.12,0,0,1-1.6-.4,8.48,8.48,0,0,1-2.1-1.9,5.12,5.12,0,0,1-1.3-2.1A0.63,0.63,0,0,1,35.2,20.5Zm-3.6.7a2.12,2.12,0,0,1,1.6.4,8.48,8.48,0,0,1,2.1,1.9,5.12,5.12,0,0,1,1.3,2.1,0.76,0.76,0,0,1-.6.8,2.12,2.12,0,0,1-1.6-.4,8.48,8.48,0,0,1-2.1-1.9A5.12,5.12,0,0,1,31,22,0.7,0.7,0,0,1,31.6,21.2Zm-8.9,1.6a2.12,2.12,0,0,1,1.6.4,8.48,8.48,0,0,1,2.1,1.9,5.12,5.12,0,0,1,1.3,2.1,0.76,0.76,0,0,1-.6.8,2.12,2.12,0,0,1-1.6-.4,8.48,8.48,0,0,1-2.1-1.9,5.12,5.12,0,0,1-1.3-2.1A0.65,0.65,0,0,1,22.7,22.8Zm-3.7.8a2.2,2.2,0,0,1,1.4.2,2.73,2.73,0,0,1,1.2.9,2.09,2.09,0,0,1,.4.6,1.42,1.42,0,0,1,.2.6v0.9a5.64,5.64,0,0,1-.1.7v0.3l2-.5,0.8,0.9-3.1.6a2.35,2.35,0,0,1-.5-1,3.22,3.22,0,0,1,0-1.4,1.25,1.25,0,0,0,0-.9,0.86,0.86,0,0,0-.3-0.6,2.65,2.65,0,0,0-.6-0.5,1.27,1.27,0,0,0-.6-0.1q-0.6.15,0,.9l-1,.1a1.91,1.91,0,0,1-.5-1.2A0.67,0.67,0,0,1,19,23.6Z" transform="translate(-0.1)"/><path class="cls-1" d="M16.7,14.4a1.33,1.33,0,0,0-.7-0.3c-0.2,0-.2.2-0.2,0.4A8,8,0,0,0,16.9,16a5.85,5.85,0,0,0,1.4,1.4,0.71,0.71,0,0,0,.7.2c0.2,0,.2-0.2.2-0.4a11.46,11.46,0,0,0-1.1-1.4A5.85,5.85,0,0,0,16.7,14.4Z" transform="translate(-0.1)"/><path class="cls-1" d="M39.2,32.1a1.08,1.08,0,0,0-.7-0.2,0.25,0.25,0,0,0-.2.4c0.1,0.2.5,0.7,1.1,1.5L39.6,34H41c-0.1-.2-0.3-0.3-0.4-0.5A17.42,17.42,0,0,0,39.2,32.1Z" transform="translate(-0.1)"/><path class="cls-1" d="M5.2,27.3a2.54,2.54,0,0,0-.7-0.2c-0.2,0-.2.2-0.2,0.4A8,8,0,0,0,5.4,29a5.85,5.85,0,0,0,1.4,1.4,0.71,0.71,0,0,0,.7.2c0.2,0,.2-0.2.2-0.4a8,8,0,0,0-1.1-1.5A5.85,5.85,0,0,0,5.2,27.3Z" transform="translate(-0.1)"/><path class="cls-1" d="M29.5,33.6a0.22,0.22,0,0,0-.2.2V34h1.1a1.38,1.38,0,0,0-.4-0.3A1.09,1.09,0,0,0,29.5,33.6Z" transform="translate(-0.1)"/><path class="cls-1" d="M5,31.9l-0.8-1,0.9-.1,0.8,1Zm3.2-.4a2.12,2.12,0,0,1-1.6-.4,8.48,8.48,0,0,1-2.1-1.9,5.12,5.12,0,0,1-1.3-2.1,0.76,0.76,0,0,1,.6-0.8,2.12,2.12,0,0,1,1.6.4,8.48,8.48,0,0,1,2.1,1.9,5.12,5.12,0,0,1,1.3,2.1A0.76,0.76,0,0,1,8.2,31.5Zm3.6-.6a2.12,2.12,0,0,1-1.6-.4,8.48,8.48,0,0,1-2.1-1.9,5.12,5.12,0,0,1-1.3-2.1,0.7,0.7,0,0,1,.6-0.8,2.12,2.12,0,0,1,1.6.4A8.48,8.48,0,0,1,11.1,28a5.12,5.12,0,0,1,1.3,2.1A0.76,0.76,0,0,1,11.8,30.9Z" transform="translate(-0.1)"/><path class="cls-1" d="M20.7,34h7.6a0.45,0.45,0,0,1,0-.5A0.79,0.79,0,0,1,29,33a2.09,2.09,0,0,1,1.3.2,3.13,3.13,0,0,1,1.1.8h2.8a0.65,0.65,0,0,0-.2-0.5,1.76,1.76,0,0,0-.5-0.4A1.09,1.09,0,0,0,33,33a0.22,0.22,0,0,0-.2.2,0.65,0.65,0,0,0,.2.5l-0.9.2a1.32,1.32,0,0,1-.3-1.1,0.79,0.79,0,0,1,.7-0.5,2.09,2.09,0,0,1,1.3.2,3.13,3.13,0,0,1,1.1.8,0.86,0.86,0,0,1,.3.6V34h3.5l-0.1-.1a5.21,5.21,0,0,1-1.3-2.1,0.7,0.7,0,0,1,.6-0.8,2.54,2.54,0,0,1,1.6.4,15.92,15.92,0,0,1,2,1.9c0,0.2.1,0.5,0.1,0.7A2.81,2.81,0,0,0,44,32.7H43.8c-0.5-.6-0.9-1-1.1-1.2a1.08,1.08,0,0,0-.7-0.2,0.25,0.25,0,0,0-.2.4,4.48,4.48,0,0,0,.7,1,3.08,3.08,0,0,0-1,.1,3.61,3.61,0,0,1-.8-1.5,0.7,0.7,0,0,1,.6-0.8,2.54,2.54,0,0,1,1.6.4,4.71,4.71,0,0,1,1.4,1.2,3.59,3.59,0,0,0,.2-1.1V28.4l-25,4.4Z" transform="translate(-0.1)"/><path class="cls-1" d="M38.2,24.6a0.71,0.71,0,0,0,.7.2c0.2,0,.2-0.2.2-0.4A8,8,0,0,0,38,22.9a5.85,5.85,0,0,0-1.4-1.4,4.08,4.08,0,0,0-.7-0.2c-0.2,0-.2.2-0.2,0.4a8,8,0,0,0,1.1,1.5A5.85,5.85,0,0,0,38.2,24.6Z" transform="translate(-0.1)"/><path class="cls-1" d="M8.8,26.7a4.08,4.08,0,0,0-.7-0.2c-0.2,0-.2.2-0.2,0.4A8,8,0,0,0,9,28.4a5.85,5.85,0,0,0,1.4,1.4,0.71,0.71,0,0,0,.7.2c0.2,0,.2-0.2.2-0.4a8,8,0,0,0-1.1-1.5A5.85,5.85,0,0,0,8.8,26.7Z" transform="translate(-0.1)"/><path class="cls-1" d="M41.7,24a0.71,0.71,0,0,0,.7.2c0.2,0,.2-0.2.2-0.4a8,8,0,0,0-1.1-1.5,5.85,5.85,0,0,0-1.4-1.4,1.08,1.08,0,0,0-.7-0.2c-0.2,0-.2.2-0.2,0.4a8,8,0,0,0,1.1,1.5A5.85,5.85,0,0,0,41.7,24Z" transform="translate(-0.1)"/><path class="cls-1" d="M2.1,30.9V31a1.27,1.27,0,0,0,.1.6c0.2,0,.2-0.2.1-0.4A0.53,0.53,0,0,0,2.1,30.9Z" transform="translate(-0.1)"/><path class="cls-1" d="M41.6,9.9a0.71,0.71,0,0,0-.7-0.2c-0.2,0-.2.2-0.2,0.4a8,8,0,0,0,1.1,1.5A5.85,5.85,0,0,0,43.2,13a0.71,0.71,0,0,0,.7.2c0.2,0,.2-0.2.2-0.4A8,8,0,0,0,43,11.3,5.85,5.85,0,0,0,41.6,9.9Z" transform="translate(-0.1)"/><path class="cls-1" d="M37.4,10.3c-0.2,0-.2.2-0.2,0.4a8,8,0,0,0,1.1,1.5,5.85,5.85,0,0,0,1.4,1.4,0.71,0.71,0,0,0,.7.2c0.2,0,.2-0.2.2-0.4a8,8,0,0,0-1.1-1.5,5.85,5.85,0,0,0-1.4-1.4A1.23,1.23,0,0,0,37.4,10.3Z" transform="translate(-0.1)"/><path class="cls-1" d="M2.1,13.7v0.8l7.5,7.8,34.9-6.2v-2a2.73,2.73,0,0,1-1.4-.4A8.48,8.48,0,0,1,41,11.8a5.12,5.12,0,0,1-1.3-2.1,0.57,0.57,0,0,1,.6-0.8,2.12,2.12,0,0,1,1.6.4A8.48,8.48,0,0,1,44,11.2a2.65,2.65,0,0,1,.5.6V10.1L41.4,6.8ZM10.6,20l-3-3.6a1.05,1.05,0,0,1-.5.9l-0.7-.9a0.92,0.92,0,0,0,.4-0.6,1.41,1.41,0,0,0-.1-0.9l0.7-.1,4.1,5ZM14,20.6l-0.5-.4a0.53,0.53,0,0,0,.2-0.3,0.91,0.91,0,0,0-.3-0.5l-0.4.1-0.9-.9,0.9-.2,0.6,0.7a6.78,6.78,0,0,1,.6.9A0.45,0.45,0,0,1,14,20.6ZM15.9,19l-3-3.6a1.05,1.05,0,0,1-.5.9l-0.7-.9a0.92,0.92,0,0,0,.4-0.6,1.41,1.41,0,0,0-.1-0.9l0.7-.1,4.1,5Zm3.9-.5a2.12,2.12,0,0,1-1.6-.4,8.48,8.48,0,0,1-2.1-1.9,5.12,5.12,0,0,1-1.3-2.1,0.6,0.6,0,0,1,.6-0.8,2.12,2.12,0,0,1,1.6.4,8.48,8.48,0,0,1,2.1,1.9,5.12,5.12,0,0,1,1.3,2.1A0.76,0.76,0,0,1,19.8,18.5Zm3.5-.6a2.12,2.12,0,0,1-1.6-.4,8.48,8.48,0,0,1-2.1-1.9,5.12,5.12,0,0,1-1.3-2.1,0.7,0.7,0,0,1,.6-0.8,2.12,2.12,0,0,1,1.6.4A8.48,8.48,0,0,1,22.6,15a5.12,5.12,0,0,1,1.3,2.1A0.76,0.76,0,0,1,23.3,17.9Zm3.2,0.4L25.9,18a0.53,0.53,0,0,0,.2-0.3,0.91,0.91,0,0,0-.3-0.5l-0.4.1-0.8-1,0.9-.2,0.6,0.7a6.78,6.78,0,0,1,.6.9A0.45,0.45,0,0,1,26.5,18.3Zm2.2-1.4a2.12,2.12,0,0,1-1.6-.4A8.48,8.48,0,0,1,25,14.6a5.12,5.12,0,0,1-1.3-2.1,0.63,0.63,0,0,1,.6-0.8,2.12,2.12,0,0,1,1.6.4A8.48,8.48,0,0,1,28,14a5.12,5.12,0,0,1,1.3,2.1A0.76,0.76,0,0,1,28.7,16.9Zm3.5-.6a2.12,2.12,0,0,1-1.6-.4A8.48,8.48,0,0,1,28.5,14a5.12,5.12,0,0,1-1.3-2.1,0.7,0.7,0,0,1,.6-0.8,2.12,2.12,0,0,1,1.6.4,8.48,8.48,0,0,1,2.1,1.9,5.12,5.12,0,0,1,1.3,2.1A0.76,0.76,0,0,1,32.2,16.3Zm3.6-.7a2.12,2.12,0,0,1-1.6-.4,8.48,8.48,0,0,1-2.1-1.9,5.12,5.12,0,0,1-1.3-2.1,0.63,0.63,0,0,1,.6-0.8,2.12,2.12,0,0,1,1.6.4,8.48,8.48,0,0,1,2.1,1.9,5.12,5.12,0,0,1,1.3,2.1A0.76,0.76,0,0,1,35.8,15.6Zm2.1-.5-0.8-1,0.9-.2,0.8,1Zm2.5-3.3a5.12,5.12,0,0,1,1.3,2.1,0.76,0.76,0,0,1-.6.8,2.12,2.12,0,0,1-1.6-.4,8.48,8.48,0,0,1-2.1-1.9,5.12,5.12,0,0,1-1.3-2.1,0.7,0.7,0,0,1,.6-0.8,2.12,2.12,0,0,1,1.6.4A8.48,8.48,0,0,1,40.4,11.8Z" transform="translate(-0.1)"/><path class="cls-1" d="M20.3,13.7a0.71,0.71,0,0,0-.7-0.2c-0.2,0-.2.2-0.2,0.4a8,8,0,0,0,1.1,1.5,5.85,5.85,0,0,0,1.4,1.4,0.71,0.71,0,0,0,.7.2c0.2,0,.2-0.2.2-0.4a8,8,0,0,0-1.1-1.5A5.85,5.85,0,0,0,20.3,13.7Z" transform="translate(-0.1)"/><polygon class="cls-1" points="44.4 8.4 44.4 6.3 42.7 6.6 44.4 8.4"/><path class="cls-1" d="M32.7,11.4a2.54,2.54,0,0,0-.7-0.2c-0.2,0-.2.2-0.2,0.4a8,8,0,0,0,1.1,1.5,5.85,5.85,0,0,0,1.4,1.4,0.71,0.71,0,0,0,.7.2c0.2,0,.2-0.2.2-0.4a8,8,0,0,0-1.1-1.5A5.85,5.85,0,0,0,32.7,11.4Z" transform="translate(-0.1)"/><path class="cls-1" d="M25.8,4.7a0.71,0.71,0,0,0,.7.2c0.2,0,.2-0.2.2-0.4A8,8,0,0,0,25.6,3a3,3,0,0,0-.9-1H23.4a15.75,15.75,0,0,0,1,1.3A17.42,17.42,0,0,0,25.8,4.7Z" transform="translate(-0.1)"/><path class="cls-1" d="M22.2,5.3a0.71,0.71,0,0,0,.7.2c0.2,0,.2-0.1.2-0.3A8,8,0,0,0,22,3.7a5.85,5.85,0,0,0-1.4-1.4A1.33,1.33,0,0,0,19.9,2c-0.2,0-.2.2-0.2,0.4a8,8,0,0,0,1.1,1.5A5.85,5.85,0,0,0,22.2,5.3Z" transform="translate(-0.1)"/><path class="cls-1" d="M25.6,12.7a2.54,2.54,0,0,0-.7-0.2c-0.2,0-.2.2-0.2,0.4a8,8,0,0,0,1.1,1.5,5.85,5.85,0,0,0,1.4,1.4,0.71,0.71,0,0,0,.7.2c0.2,0,.2-0.2.2-0.4A8,8,0,0,0,27,14.1,5.85,5.85,0,0,0,25.6,12.7Z" transform="translate(-0.1)"/><path class="cls-1" d="M31.1,3.8a1.08,1.08,0,0,0,.7.2A0.34,0.34,0,0,0,32,3.6c-0.1-.2-0.5-0.7-1.1-1.5L30.8,2H29.4c0.1,0.1.2,0.3,0.3,0.4A17.42,17.42,0,0,0,31.1,3.8Z" transform="translate(-0.1)"/><path class="cls-1" d="M29.2,12.1a0.71,0.71,0,0,0-.7-0.2c-0.2,0-.2.2-0.2,0.4a8,8,0,0,0,1.1,1.5,5.85,5.85,0,0,0,1.4,1.4,0.71,0.71,0,0,0,.7.2c0.2,0,.2-0.2.2-0.4a8,8,0,0,0-1.1-1.5A5.85,5.85,0,0,0,29.2,12.1Z" transform="translate(-0.1)"/><path class="cls-1" d="M34.7,3.1a1.08,1.08,0,0,0,.7.2c0.2-.1.3-0.2,0.2-0.4A6.38,6.38,0,0,1,35,2H33.6A11.09,11.09,0,0,0,34.7,3.1Z" transform="translate(-0.1)"/><path d="M6.7,14.9a1.41,1.41,0,0,1,.1.9,0.92,0.92,0,0,1-.4.6l0.7,0.9a1.05,1.05,0,0,0,.5-0.9l3,3.6,0.9-.2-4.1-5Z" transform="translate(-0.1)"/><path d="M13.6,19.1L13,18.4l-0.9.2L13,19.5l0.4-.1a0.91,0.91,0,0,1,.3.5,0.53,0.53,0,0,1-.2.3L14,20.6a0.45,0.45,0,0,0,.2-0.6A6.78,6.78,0,0,0,13.6,19.1Z" transform="translate(-0.1)"/><path d="M12,13.9a1.41,1.41,0,0,1,.1.9,0.92,0.92,0,0,1-.4.6l0.7,0.9a1.05,1.05,0,0,0,.5-0.9l3,3.6,0.9-.2-4.1-5Z" transform="translate(-0.1)"/><path d="M17,13.7a2.12,2.12,0,0,0-1.6-.4,0.6,0.6,0,0,0-.6.8,5.12,5.12,0,0,0,1.3,2.1,8.48,8.48,0,0,0,2.1,1.9,2.12,2.12,0,0,0,1.6.4,0.76,0.76,0,0,0,.6-0.8,5.12,5.12,0,0,0-1.3-2.1A8.48,8.48,0,0,0,17,13.7Zm2,3.9a0.71,0.71,0,0,1-.7-0.2A5.85,5.85,0,0,1,16.9,16a8,8,0,0,1-1.1-1.5c0-.2,0-0.4.2-0.4a1.33,1.33,0,0,1,.7.3,5.85,5.85,0,0,1,1.4,1.4,11.47,11.47,0,0,1,1.1,1.4C19.2,17.4,19.2,17.6,19,17.6Z" transform="translate(-0.1)"/><path d="M20.5,13.1a2.12,2.12,0,0,0-1.6-.4,0.7,0.7,0,0,0-.6.8,5.12,5.12,0,0,0,1.3,2.1,8.48,8.48,0,0,0,2.1,1.9,2.12,2.12,0,0,0,1.6.4,0.76,0.76,0,0,0,.6-0.8A5.12,5.12,0,0,0,22.6,15,8.48,8.48,0,0,0,20.5,13.1ZM22.6,17a0.71,0.71,0,0,1-.7-0.2,5.85,5.85,0,0,1-1.4-1.4,8,8,0,0,1-1.1-1.5c0-.2,0-0.4.2-0.4a0.71,0.71,0,0,1,.7.2,5.85,5.85,0,0,1,1.4,1.4,8,8,0,0,1,1.1,1.5C22.8,16.8,22.8,17,22.6,17Z" transform="translate(-0.1)"/><path d="M26.1,16.8l-0.6-.7-0.9.2,0.8,1,0.4-.1a0.91,0.91,0,0,1,.3.5,0.53,0.53,0,0,1-.2.3l0.6,0.3a0.45,0.45,0,0,0,.2-0.6A6.78,6.78,0,0,0,26.1,16.8Z" transform="translate(-0.1)"/><path d="M25.9,12.1a2.12,2.12,0,0,0-1.6-.4,0.63,0.63,0,0,0-.6.8A5.12,5.12,0,0,0,25,14.6a8.48,8.48,0,0,0,2.1,1.9,2.12,2.12,0,0,0,1.6.4,0.76,0.76,0,0,0,.6-0.8A5.12,5.12,0,0,0,28,14,8.48,8.48,0,0,0,25.9,12.1Zm2,3.9a0.71,0.71,0,0,1-.7-0.2,5.85,5.85,0,0,1-1.4-1.4,8,8,0,0,1-1.1-1.5c0-.2,0-0.4.2-0.4a2.54,2.54,0,0,1,.7.2A5.85,5.85,0,0,1,27,14.1a8,8,0,0,1,1.1,1.5C28.1,15.8,28.1,16,27.9,16Z" transform="translate(-0.1)"/><path d="M29.4,11.5a2.12,2.12,0,0,0-1.6-.4,0.7,0.7,0,0,0-.6.8A5.12,5.12,0,0,0,28.5,14a8.48,8.48,0,0,0,2.1,1.9,2.12,2.12,0,0,0,1.6.4,0.76,0.76,0,0,0,.6-0.8,5.12,5.12,0,0,0-1.3-2.1A8.48,8.48,0,0,0,29.4,11.5Zm2.1,3.9a0.71,0.71,0,0,1-.7-0.2,5.85,5.85,0,0,1-1.4-1.4,8,8,0,0,1-1.1-1.5c0-.2,0-0.4.2-0.4a0.71,0.71,0,0,1,.7.2,5.85,5.85,0,0,1,1.4,1.4A8,8,0,0,1,31.7,15C31.7,15.2,31.7,15.4,31.5,15.4Z" transform="translate(-0.1)"/><path d="M33,10.8a2.12,2.12,0,0,0-1.6-.4,0.63,0.63,0,0,0-.6.8,5.12,5.12,0,0,0,1.3,2.1,8.48,8.48,0,0,0,2.1,1.9,2.12,2.12,0,0,0,1.6.4,0.76,0.76,0,0,0,.6-0.8,5.12,5.12,0,0,0-1.3-2.1A8.48,8.48,0,0,0,33,10.8Zm2,3.9a0.71,0.71,0,0,1-.7-0.2,5.85,5.85,0,0,1-1.4-1.4,8,8,0,0,1-1.1-1.5c0-.2,0-0.4.2-0.4a2.54,2.54,0,0,1,.7.2,5.85,5.85,0,0,1,1.4,1.4,8,8,0,0,1,1.1,1.5C35.2,14.5,35.2,14.7,35,14.7Z" transform="translate(-0.1)"/><polygon points="37 14.1 37.8 15.1 38.7 14.9 37.9 13.9 37 14.1"/><path d="M36.7,9.5a0.7,0.7,0,0,0-.6.8,5.12,5.12,0,0,0,1.3,2.1,8.48,8.48,0,0,0,2.1,1.9,2.12,2.12,0,0,0,1.6.4,0.76,0.76,0,0,0,.6-0.8,5.12,5.12,0,0,0-1.3-2.1,8.48,8.48,0,0,0-2.1-1.9A2.12,2.12,0,0,0,36.7,9.5Zm2.8,2.4a8,8,0,0,1,1.1,1.5c0,0.2,0,.4-0.2.4a0.71,0.71,0,0,1-.7-0.2,5.85,5.85,0,0,1-1.4-1.4,8,8,0,0,1-1.1-1.5c0-.2,0-0.4.2-0.4a1.23,1.23,0,0,1,.7.2A5.85,5.85,0,0,1,39.5,11.9Z" transform="translate(-0.1)"/><path d="M18.8,25.3l1-.1q-0.6-.75,0-0.9a1.27,1.27,0,0,1,.6.1,2.65,2.65,0,0,1,.6.5,0.86,0.86,0,0,1,.3.6,1.25,1.25,0,0,1,0,.9,3.22,3.22,0,0,0,0,1.4,2.35,2.35,0,0,0,.5,1l3.1-.6-0.8-.9-2,.5V27.5a5.64,5.64,0,0,0,.1-0.7V25.9a1.42,1.42,0,0,0-.2-0.6,2.09,2.09,0,0,0-.4-0.6,2.73,2.73,0,0,0-1.2-.9,2.2,2.2,0,0,0-1.4-.2,0.67,0.67,0,0,0-.7.5A1.91,1.91,0,0,0,18.8,25.3Z" transform="translate(-0.1)"/><path d="M25.5,27.6a2.12,2.12,0,0,0,1.6.4,0.76,0.76,0,0,0,.6-0.8,5.12,5.12,0,0,0-1.3-2.1,8.48,8.48,0,0,0-2.1-1.9,2.12,2.12,0,0,0-1.6-.4,0.65,0.65,0,0,0-.6.8,5.12,5.12,0,0,0,1.3,2.1A8.48,8.48,0,0,0,25.5,27.6Zm-2.1-4a0.71,0.71,0,0,1,.7.2,5.85,5.85,0,0,1,1.4,1.4,8,8,0,0,1,1.1,1.5c0,0.2,0,.4-0.2.4a0.71,0.71,0,0,1-.7-0.2,5.85,5.85,0,0,1-1.4-1.4A8,8,0,0,1,23.2,24C23.2,23.8,23.2,23.6,23.4,23.6Z" transform="translate(-0.1)"/><path d="M27,23.6a1.69,1.69,0,0,1-.2-0.5,0.22,0.22,0,0,1,.2-0.2,0.9,0.9,0,0,1,.5.1,1,1,0,0,1,.5.4,0.65,0.65,0,0,1,.2.5,0.35,0.35,0,0,1-.4.3L28.4,25c0.1,0,.2-0.1.3-0.1a0.66,0.66,0,0,1,.6.1,1.79,1.79,0,0,1,.7.5,0.86,0.86,0,0,1,.3.6,0.27,0.27,0,0,1-.3.3,1.27,1.27,0,0,1-.6-0.1,1.79,1.79,0,0,1-.7-0.5l-0.8.3a2.53,2.53,0,0,0,1.55.84,2.74,2.74,0,0,0,1.14,0,1,1,0,0,0,.91-0.68,1.47,1.47,0,0,0-.5-1.2,5.5,5.5,0,0,0-.9-0.7,2.24,2.24,0,0,0-1-.3,0.75,0.75,0,0,0,.1-0.5,0.86,0.86,0,0,0-.3-0.6,3.13,3.13,0,0,0-1.1-.8,2,2,0,0,0-1.3-.2,0.79,0.79,0,0,0-.7.5,1.32,1.32,0,0,0,.3,1.1H27Z" transform="translate(-0.1)"/><path d="M33.5,26.3l-0.6-.7-0.9.2,0.9,0.9,0.4-.1a0.91,0.91,0,0,1,.3.5,0.53,0.53,0,0,1-.2.3l0.5,0.4a0.45,0.45,0,0,0,.2-0.6A6.79,6.79,0,0,0,33.5,26.3Z" transform="translate(-0.1)"/><path d="M34.4,26a2.12,2.12,0,0,0,1.6.4,0.76,0.76,0,0,0,.6-0.8,5.12,5.12,0,0,0-1.3-2.1,8.48,8.48,0,0,0-2.1-1.9,2.12,2.12,0,0,0-1.6-.4,0.7,0.7,0,0,0-.6.8,5.12,5.12,0,0,0,1.3,2.1A8.48,8.48,0,0,0,34.4,26Zm-2.1-4a0.71,0.71,0,0,1,.7.2,5.85,5.85,0,0,1,1.4,1.4,8,8,0,0,1,1.1,1.5c0,0.2,0,.4-0.2.4a0.71,0.71,0,0,1-.7-0.2,5.85,5.85,0,0,1-1.4-1.4,8,8,0,0,1-1.1-1.5C32.1,22.1,32.1,22,32.3,22Z" transform="translate(-0.1)"/><path d="M35.9,23.4A8.48,8.48,0,0,0,38,25.3a2.12,2.12,0,0,0,1.6.4,0.76,0.76,0,0,0,.6-0.8,5.12,5.12,0,0,0-1.3-2.1,8.48,8.48,0,0,0-2.1-1.9,2.12,2.12,0,0,0-1.6-.4,0.63,0.63,0,0,0-.6.8A5.12,5.12,0,0,0,35.9,23.4Zm0-2.1a4.08,4.08,0,0,1,.7.2A5.85,5.85,0,0,1,38,22.9a8,8,0,0,1,1.1,1.5c0,0.2,0,.4-0.2.4a0.71,0.71,0,0,1-.7-0.2,5.85,5.85,0,0,1-1.4-1.4,8,8,0,0,1-1.1-1.5C35.7,21.5,35.7,21.3,35.9,21.3Z" transform="translate(-0.1)"/><path d="M41.5,24.7a2.12,2.12,0,0,0,1.6.4,0.76,0.76,0,0,0,.6-0.8,5.12,5.12,0,0,0-1.3-2.1,8.48,8.48,0,0,0-2.1-1.9,2.12,2.12,0,0,0-1.6-.4,0.7,0.7,0,0,0-.6.8,5.12,5.12,0,0,0,1.3,2.1A8.48,8.48,0,0,0,41.5,24.7Zm-2.1-4a1.08,1.08,0,0,1,.7.2,5.85,5.85,0,0,1,1.4,1.4,8,8,0,0,1,1.1,1.5c0,0.2,0,.4-0.2.4a0.71,0.71,0,0,1-.7-0.2,5.85,5.85,0,0,1-1.4-1.4,8,8,0,0,1-1.1-1.5C39.2,20.9,39.2,20.7,39.4,20.7Z" transform="translate(-0.1)"/><path d="M46.6,22.6V4.8h0A5.06,5.06,0,0,0,41.5,0H5.1a5,5,0,0,0-5,5V31.1h0a5,5,0,0,0,5,4.9H32.3l0.1,0.1h1.1L33.4,36h2.9v0.1h1.1a0.1,0.1,0,0,0-.1-0.1h4.3a5,5,0,0,0,5-5V22.6ZM35,2c0.3,0.5.6,0.8,0.6,0.9s0,0.3-.2.4a1.08,1.08,0,0,1-.7-0.2A11.09,11.09,0,0,1,33.6,2H35ZM30.8,2h0A19.59,19.59,0,0,1,32,3.6a0.34,0.34,0,0,1-.2.4,1.08,1.08,0,0,1-.7-0.2,17.42,17.42,0,0,1-1.4-1.4c-0.1-.1-0.2-0.3-0.3-0.4h1.4ZM24.7,2a3,3,0,0,1,.9,1,8,8,0,0,1,1.1,1.5c0,0.2,0,.4-0.2.4a0.71,0.71,0,0,1-.7-0.2,17.42,17.42,0,0,1-1.4-1.4,15.75,15.75,0,0,1-1-1.3h1.3ZM19.9,2a1.33,1.33,0,0,1,.7.3A5.85,5.85,0,0,1,22,3.7a8,8,0,0,1,1.1,1.5c0,0.2,0,.3-0.2.3a0.71,0.71,0,0,1-.7-0.2,5.85,5.85,0,0,1-1.4-1.4,8,8,0,0,1-1.1-1.5C19.7,2.2,19.7,2,19.9,2Zm-3.5.7a0.71,0.71,0,0,1,.7.2,5.85,5.85,0,0,1,1.4,1.4,8,8,0,0,1,1.1,1.5c0,0.2,0,.4-0.2.4A0.71,0.71,0,0,1,18.7,6a5.85,5.85,0,0,1-1.4-1.4,8,8,0,0,1-1.1-1.5C16.2,2.9,16.2,2.7,16.4,2.7ZM2.2,12.7L2.1,5a3,3,0,0,1,3-3H15.4a0.68,0.68,0,0,0-.3.7,5.12,5.12,0,0,0,1.3,2.1,8.48,8.48,0,0,0,2.1,1.9,2.12,2.12,0,0,0,1.6.4,0.76,0.76,0,0,0,.6-0.8,5.12,5.12,0,0,0-1.3-2.1,8.48,8.48,0,0,0-2.1-1.9L16.7,2h2A4.22,4.22,0,0,0,20,4.1,8.48,8.48,0,0,0,22.1,6a2.12,2.12,0,0,0,1.6.4,0.76,0.76,0,0,0,.6-0.8A5.12,5.12,0,0,0,23,3.5L21.5,2h0.9a5.54,5.54,0,0,0,1.1,1.5,8.48,8.48,0,0,0,2.1,1.9,2.12,2.12,0,0,0,1.6.4A0.76,0.76,0,0,0,27.8,5a5.12,5.12,0,0,0-1.3-2.1A6.47,6.47,0,0,1,25.7,2h2.8a1.76,1.76,0,0,0,.4.5A6.84,6.84,0,0,0,31,4.4a2.54,2.54,0,0,0,1.6.4A0.76,0.76,0,0,0,33.2,4,5,5,0,0,0,32,2h0.7a6.79,6.79,0,0,0,1.9,1.7,2.54,2.54,0,0,0,1.6.4,0.7,0.7,0,0,0,.6-0.8A3.32,3.32,0,0,0,36.1,2h0.8l3.7,3.9ZM2.1,20.1a5.93,5.93,0,0,0,.4.6c0.1,0.2,0,.3-0.2.4H2.1v-1h0Zm0,1.8a2.2,2.2,0,0,0,.8.1,0.7,0.7,0,0,0,.6-0.8A3.72,3.72,0,0,0,2.3,19l-0.2-.2V16.1l6.1,6.5L2.1,23.7V21.9h0Zm0.1,9.7c0-.2-0.1-0.4-0.1-0.6V30.9a0.53,0.53,0,0,1,.2.3A0.3,0.3,0,0,1,2.2,31.6ZM5.1,34a2.92,2.92,0,0,1-2.7-1.6H2.9a0.7,0.7,0,0,0,.6-0.8,7.82,7.82,0,0,0-1.3-2l-0.1-.1V24.8l7-1.2,8.1,8.5-11.3,2H5.1V34Zm7.6,0,5.5-1,0.9,1H12.7Zm16.6,0V33.8a0.22,0.22,0,0,1,.2-0.2,1.09,1.09,0,0,1,.5.1,1.38,1.38,0,0,1,.4.3H29.3Zm10.3,0-0.2-.2c-0.6-.8-1-1.3-1.1-1.5a0.25,0.25,0,0,1,.2-0.4,1.08,1.08,0,0,1,.7.2,17.42,17.42,0,0,1,1.4,1.4,1.76,1.76,0,0,1,.4.5H39.6Zm4.9-3a4.25,4.25,0,0,1-.2,1.1,13,13,0,0,0-1.4-1.2,2.54,2.54,0,0,0-1.6-.4,0.7,0.7,0,0,0-.6.8,3.61,3.61,0,0,0,.8,1.5,3.08,3.08,0,0,1,1-.1,4.48,4.48,0,0,1-.7-1,0.25,0.25,0,0,1,.2-0.4,1.08,1.08,0,0,1,.7.2c0.2,0.2.6,0.6,1.1,1.2H44A2.81,2.81,0,0,1,41.6,34a1.7,1.7,0,0,0-.1-0.7,15.92,15.92,0,0,0-2-1.9,2.54,2.54,0,0,0-1.6-.4,0.7,0.7,0,0,0-.6.8,5.21,5.21,0,0,0,1.3,2.1L38.7,34H35.2V33.9a0.86,0.86,0,0,0-.3-0.6,3.13,3.13,0,0,0-1.1-.8,2.09,2.09,0,0,0-1.3-.2,0.79,0.79,0,0,0-.7.5,1.32,1.32,0,0,0,.3,1.1l0.9-.2a0.65,0.65,0,0,1-.2-0.5A0.22,0.22,0,0,1,33,33a1.09,1.09,0,0,1,.5.1,1.76,1.76,0,0,1,.5.4,0.65,0.65,0,0,1,.2.5H31.4a3.13,3.13,0,0,0-1.1-.8A2.09,2.09,0,0,0,29,33a0.79,0.79,0,0,0-.7.5,0.85,0.85,0,0,0,0,.5H20.7l-1.2-1.2,25-4.4V31h0Zm0-12.1H44.1a0.7,0.7,0,0,0-.6.8,4.59,4.59,0,0,0,1,1.7v2.1H44.4l0.1,0.1v3.5L18.6,31.7l-8.1-8.5,34-6v1.7Zm0-7.1a2.65,2.65,0,0,0-.5-0.6,8.48,8.48,0,0,0-2.1-1.9,2.12,2.12,0,0,0-1.6-.4,0.57,0.57,0,0,0-.6.8A5.12,5.12,0,0,0,41,11.8a8.48,8.48,0,0,0,2.1,1.9,2,2,0,0,0,1.4.4v2L9.6,22.3,2.1,14.5V13.7L41.4,6.8l3.1,3.3v1.7h0Zm-0.4,1c0,0.2,0,.4-0.2.4a0.71,0.71,0,0,1-.7-0.2,5.85,5.85,0,0,1-1.4-1.4,8,8,0,0,1-1.1-1.5c0-.2,0-0.4.2-0.4a0.71,0.71,0,0,1,.7.2A5.85,5.85,0,0,1,43,11.3,8,8,0,0,1,44.1,12.8Zm0.4-4.4L42.8,6.6l1.7-.3V8.4Zm0-3.2-2.6.5L38.4,2.1h3.1a3,3,0,0,1,3,3V5.2Z" transform="translate(-0.1)"/><path d="M3.3,4.1a1.41,1.41,0,0,1,.1.9,0.6,0.6,0,0,1-.3.6L3.9,6.4a1.05,1.05,0,0,0,.5-0.9l3,3.6L8.3,9,4,4Z" transform="translate(-0.1)"/><path d="M10,7.7V7.4a5.64,5.64,0,0,0,.1-0.7V5.8C10,5.6,10,5.4,9.9,5.2a2.65,2.65,0,0,0-.5-0.6,2.73,2.73,0,0,0-1.2-.9,2.2,2.2,0,0,0-1.4-.2,0.67,0.67,0,0,0-.7.5,2.05,2.05,0,0,0,.4,1.3l1-.1q-0.6-.9,0-0.9a0.66,0.66,0,0,1,.6.1,0.63,0.63,0,0,1,.5.5,0.86,0.86,0,0,1,.3.6,1.25,1.25,0,0,1,0,.9A5.72,5.72,0,0,0,9,7.8a2.35,2.35,0,0,0,.5,1l3.1-.6-0.8-.9Z" transform="translate(-0.1)"/><path d="M10.6,2.8a1.41,1.41,0,0,1,.1.9,0.92,0.92,0,0,1-.4.6L11,5.2a1.05,1.05,0,0,0,.5-0.9l3,3.6,0.9-.2-4.3-5Z" transform="translate(-0.1)"/><path d="M17.5,7l-0.6-.7L16,6.5l0.9,0.9,0.4-.1a0.91,0.91,0,0,1,.3.5,0.53,0.53,0,0,1-.2.3l0.5,0.4a0.45,0.45,0,0,0,.2-0.6A6.78,6.78,0,0,0,17.5,7Z" transform="translate(-0.1)"/><polygon points="28.4 4.2 29.2 5.2 30.1 5 29.3 4 28.4 4.2"/><polygon points="4.1 30.9 4.9 31.9 5.8 31.8 5 30.8 4.1 30.9"/><path d="M5.4,26.7a2.12,2.12,0,0,0-1.6-.4,0.76,0.76,0,0,0-.6.8,5.12,5.12,0,0,0,1.3,2.1,8.48,8.48,0,0,0,2.1,1.9,2.12,2.12,0,0,0,1.6.4,0.76,0.76,0,0,0,.6-0.8,5.12,5.12,0,0,0-1.3-2.1A8.48,8.48,0,0,0,5.4,26.7Zm2.1,3.9a0.71,0.71,0,0,1-.7-0.2A5.85,5.85,0,0,1,5.4,29a8,8,0,0,1-1.1-1.5c0-.2,0-0.4.2-0.4a2.54,2.54,0,0,1,.7.2,5.85,5.85,0,0,1,1.4,1.4,8,8,0,0,1,1.1,1.5C7.7,30.4,7.7,30.6,7.5,30.6Z" transform="translate(-0.1)"/><path d="M11.1,28A8.48,8.48,0,0,0,9,26.1a2.12,2.12,0,0,0-1.6-.4,0.7,0.7,0,0,0-.6.8,5.12,5.12,0,0,0,1.3,2.1,8.48,8.48,0,0,0,2.1,1.9,2.12,2.12,0,0,0,1.6.4,0.76,0.76,0,0,0,.6-0.8A5.12,5.12,0,0,0,11.1,28Zm0,2a0.71,0.71,0,0,1-.7-0.2A5.85,5.85,0,0,1,9,28.4a8,8,0,0,1-1.1-1.5c0-.2,0-0.4.2-0.4a4.08,4.08,0,0,1,.7.2,5.85,5.85,0,0,1,1.4,1.4,8,8,0,0,1,1.1,1.5C11.3,29.8,11.3,30,11.1,30Z" transform="translate(-0.1)"/></svg>