<?xml version="1.0" encoding="utf-8"?>
<!-- Generator: Adobe Illustrator 19.0.1, SVG Export Plug-In . SVG Version: 6.00 Build 0)  -->
<svg version="1.1" id="Layer_1" xmlns="http://www.w3.org/2000/svg" xmlns:xlink="http://www.w3.org/1999/xlink" x="0px" y="0px"
	 viewBox="-282 379 46.5 36" style="enable-background:new -282 379 46.5 36;" xml:space="preserve">
<style type="text/css">
	.st0{fill:none;}
</style>
<g id="Layer_1_1_">
</g>
<g id="Layer_2">
</g>
<g id="Layer_3">
</g>
<g id="Layer_7">
</g>
<g id="Layer_4">
</g>
<g>
	<path class="st0" d="M-263.4,385c0.3,0.2,0.5,0.3,0.7,0.2c0.2,0,0.2-0.2,0.2-0.4c-0.1-0.2-0.4-0.7-1.1-1.5
		c-0.6-0.8-1.1-1.2-1.4-1.4c-0.3-0.2-0.5-0.3-0.7-0.2c-0.2,0-0.2,0.2-0.2,0.4c0.1,0.2,0.4,0.7,1.1,1.5
		C-264.2,384.4-263.7,384.8-263.4,385z"/>
	<path class="st0" d="M-256.4,405.9c0.3,0.2,0.5,0.3,0.7,0.2c0.2,0,0.2-0.2,0.2-0.4c-0.1-0.2-0.4-0.7-1.1-1.5
		c-0.6-0.8-1.1-1.2-1.4-1.4s-0.5-0.3-0.7-0.2c-0.2,0-0.2,0.2-0.2,0.4c0.1,0.2,0.4,0.7,1.1,1.5C-257.2,405.3-256.7,405.7-256.4,405.9
		z"/>
	<path class="st0" d="M-279.6,399.7c-0.1-0.1-0.2-0.3-0.4-0.6v1c0.1,0,0.1,0,0.2,0C-279.6,400-279.5,399.9-279.6,399.7z"/>
	<polygon class="st0" points="-269.4,413 -263,413 -263.9,412 	"/>
	<path class="st0" d="M-280,395.1v2.7c0.1,0.1,0.1,0.1,0.2,0.2c0.8,0.9,1.2,1.6,1.2,2.2c0,0.5-0.2,0.7-0.6,0.8
		c-0.3,0.1-0.5,0-0.8-0.1v1.7l6.1-1.1L-280,395.1z"/>
	<path class="st0" d="M-247.5,404.3c0.3,0.2,0.5,0.3,0.7,0.2c0.2,0,0.2-0.2,0.2-0.4c-0.1-0.2-0.4-0.7-1.1-1.5
		c-0.6-0.8-1.1-1.2-1.4-1.4c-0.3-0.2-0.5-0.3-0.7-0.2c-0.2,0-0.2,0.1-0.2,0.4c0.1,0.2,0.4,0.7,1.1,1.5
		C-248.3,403.7-247.8,404.1-247.5,404.3z"/>
	<path class="st0" d="M-245.3,381h-0.8c0.4,0.6,0.7,1,0.7,1.3c0,0.5-0.2,0.7-0.6,0.8c-0.5,0.1-1-0.1-1.6-0.4
		c-0.6-0.3-1.2-0.8-1.9-1.7h-0.7c0.8,0.9,1.2,1.6,1.2,2c0,0.4-0.2,0.7-0.6,0.8c-0.5,0.1-1-0.1-1.6-0.4c-0.6-0.3-1.3-0.9-2.1-1.9
		c-0.1-0.2-0.3-0.3-0.4-0.5h-2.8c0.3,0.3,0.6,0.6,0.8,0.9c0.8,0.9,1.2,1.6,1.3,2.1c0,0.4-0.2,0.7-0.6,0.8c-0.4,0.1-1,0-1.6-0.4
		c-0.6-0.3-1.3-1-2.1-1.9c-0.5-0.6-0.9-1.1-1.1-1.5h-0.9c0.5,0.4,1,0.9,1.5,1.5c0.8,0.9,1.2,1.6,1.3,2.1c0,0.4-0.2,0.7-0.6,0.8
		c-0.4,0.1-1,0-1.6-0.4c-0.6-0.3-1.3-1-2.1-1.9c-0.9-1-1.3-1.7-1.3-2.1h-2c0.2,0.1,0.4,0.2,0.6,0.3c0.6,0.3,1.3,1,2.1,1.9
		c0.8,0.9,1.2,1.6,1.3,2.1c0,0.4-0.2,0.7-0.6,0.8c-0.4,0.1-1,0-1.6-0.4c-0.6-0.3-1.3-1-2.1-1.9c-0.8-0.9-1.2-1.6-1.3-2.1
		c0-0.4,0.1-0.6,0.3-0.7H-277c-1.7,0-3,1.3-3,3v7.6l38.4-6.8L-245.3,381z M-274.7,388.1l-3-3.6c0,0.4-0.2,0.7-0.5,0.9l-0.8-0.8
		c0.2-0.1,0.3-0.3,0.3-0.6c0.1-0.3,0-0.6-0.1-0.9l0.7-0.1l4.3,5L-274.7,388.1z M-272.6,387.8c-0.3-0.3-0.4-0.7-0.5-1
		c-0.1-0.4-0.1-0.8-0.1-1.4c0.1-0.5,0.1-0.8,0-0.9c0-0.2-0.1-0.4-0.3-0.6c-0.1-0.3-0.3-0.5-0.5-0.5c-0.2-0.1-0.4-0.2-0.6-0.1
		c-0.4,0-0.4,0.3,0,0.9l-1,0.1c-0.3-0.6-0.5-1-0.4-1.3s0.3-0.5,0.7-0.5c0.5-0.1,1,0,1.4,0.2c0.5,0.2,0.9,0.5,1.2,0.9
		c0.2,0.2,0.4,0.4,0.5,0.6c0.1,0.2,0.1,0.4,0.2,0.6c0,0.2,0,0.5,0,0.9c0,0.3-0.1,0.6-0.1,0.7c0,0.1,0,0.2,0,0.3l1.8-0.4l0.8,0.9
		L-272.6,387.8z M-267.6,386.9l-3-3.6c0,0.4-0.2,0.7-0.5,0.9l-0.7-0.9c0.2-0.1,0.3-0.3,0.4-0.6c0.1-0.3,0-0.6-0.1-0.9l0.5-0.1l4.3,5
		L-267.6,386.9z M-264.2,387.5l-0.5-0.4c0.1-0.1,0.2-0.2,0.2-0.3c0-0.1-0.1-0.3-0.3-0.5l-0.4,0.1l-0.9-0.9l0.9-0.2l0.6,0.7
		c0.3,0.4,0.5,0.7,0.6,0.9C-263.9,387.2-264,387.4-264.2,387.5z M-252.8,384.2l-0.8-1l0.9-0.2l0.8,1L-252.8,384.2z"/>
	<path class="st0" d="M-263.5,410.8l25.9-4.6v-3.5l-0.1-0.1l0.1,0v-2.1c-0.6-0.8-1-1.4-1-1.7c0-0.5,0.2-0.7,0.6-0.8
		c0.1,0,0.3,0,0.4,0v-1.6l-34,6L-263.5,410.8z M-248.2,406.8l-0.5-0.4c0.1-0.1,0.2-0.2,0.2-0.3c0-0.1-0.1-0.3-0.3-0.5l-0.4,0.1
		l-0.9-0.9l0.9-0.2l0.6,0.7c0.3,0.4,0.5,0.7,0.6,0.9C-247.9,406.5-248,406.7-248.2,406.8z M-243.4,398.9c0.4-0.1,1,0,1.6,0.4
		c0.6,0.3,1.3,1,2.1,1.9c0.8,0.9,1.2,1.6,1.3,2.1c0,0.4-0.2,0.7-0.6,0.8c-0.4,0.1-1,0-1.6-0.4c-0.6-0.3-1.3-1-2.1-1.9
		c-0.8-0.9-1.2-1.6-1.3-2.1C-244,399.2-243.8,399-243.4,398.9z M-246.9,399.5c0.4-0.1,1,0,1.6,0.4c0.6,0.3,1.3,1,2.1,1.9
		c0.8,0.9,1.2,1.6,1.3,2.1c0,0.4-0.2,0.7-0.6,0.8c-0.4,0.1-1,0-1.6-0.4c-0.6-0.3-1.3-1-2.1-1.9c-0.8-0.9-1.2-1.6-1.3-2.1
		C-247.6,399.9-247.4,399.6-246.9,399.5z M-250.5,400.2c0.4-0.1,1,0,1.6,0.4c0.6,0.3,1.3,1,2.1,1.9s1.2,1.6,1.3,2.1
		c0,0.4-0.2,0.7-0.6,0.8c-0.4,0.1-1,0-1.6-0.4c-0.6-0.3-1.3-1-2.1-1.9c-0.8-0.9-1.2-1.6-1.3-2.1
		C-251.1,400.5-250.9,400.3-250.5,400.2z M-256.3,401.5c0.1-0.3,0.3-0.4,0.7-0.5c0.4-0.1,0.9,0,1.3,0.2c0.5,0.2,0.8,0.5,1.1,0.8
		c0.2,0.2,0.3,0.4,0.3,0.6c0,0.2,0,0.4-0.1,0.5c0.3,0,0.6,0.1,1,0.3c0.3,0.2,0.6,0.4,0.9,0.7c0.4,0.5,0.6,0.9,0.5,1.2
		c-0.1,0.4-0.3,0.6-0.7,0.6c-0.4,0.1-0.8,0-1.3-0.2c-0.7,0.1-1.2-0.2-1.6-0.6l0.8-0.3c0.2,0.2,0.4,0.4,0.7,0.5
		c0.2,0.1,0.4,0.1,0.6,0.1c0.2,0,0.3-0.1,0.3-0.3c0-0.2-0.1-0.4-0.3-0.6c-0.2-0.2-0.4-0.4-0.7-0.5c-0.2-0.1-0.4-0.2-0.6-0.1
		c-0.1,0-0.2,0.1-0.3,0.1l-0.6-0.8c0.2,0,0.4-0.1,0.4-0.3c0-0.1,0-0.3-0.2-0.5c-0.1-0.2-0.3-0.3-0.5-0.4c-0.2-0.1-0.3-0.1-0.5-0.1
		c-0.1,0-0.2,0.1-0.2,0.2c0,0.1,0.1,0.3,0.2,0.5h-0.9C-256.3,402.1-256.4,401.8-256.3,401.5z M-259.4,401.8c0.4-0.1,1,0,1.6,0.4
		c0.6,0.3,1.3,1,2.1,1.9c0.8,0.9,1.2,1.6,1.3,2.1c0,0.4-0.2,0.7-0.6,0.8s-1,0-1.6-0.4c-0.6-0.3-1.3-1-2.1-1.9
		c-0.8-0.9-1.2-1.6-1.3-2.1C-260,402.1-259.8,401.8-259.4,401.8z M-263.1,402.6c0.5-0.1,1,0,1.4,0.2c0.5,0.2,0.9,0.5,1.2,0.9
		c0.2,0.2,0.3,0.4,0.4,0.6c0.1,0.2,0.2,0.4,0.2,0.6c0,0.2,0,0.5,0,0.9c0,0.3-0.1,0.6-0.1,0.7s0,0.2,0,0.3l2-0.5l0.8,0.9l-3.1,0.6
		c-0.3-0.3-0.4-0.7-0.5-1c-0.1-0.3-0.1-0.8,0-1.4c0.1-0.5,0.1-0.8,0-0.9c0-0.2-0.1-0.4-0.3-0.6c-0.2-0.2-0.4-0.4-0.6-0.5
		c-0.2-0.1-0.4-0.1-0.6-0.1c-0.4,0.1-0.4,0.4,0,0.9l-1,0.1c-0.4-0.5-0.5-0.9-0.5-1.2C-263.7,402.8-263.5,402.6-263.1,402.6z"/>
	<path class="st0" d="M-265.4,393.4c-0.3-0.2-0.5-0.3-0.7-0.3c-0.2,0-0.2,0.2-0.2,0.4c0.1,0.2,0.4,0.7,1.1,1.5
		c0.6,0.8,1.1,1.2,1.4,1.4c0.3,0.2,0.5,0.3,0.7,0.2c0.2,0,0.2-0.2,0.2-0.4c-0.1-0.2-0.5-0.7-1.1-1.4
		C-264.6,394-265.1,393.6-265.4,393.4z"/>
	<path class="st0" d="M-242.9,411.1c-0.3-0.2-0.5-0.2-0.7-0.2c-0.2,0-0.3,0.2-0.2,0.4c0.1,0.2,0.5,0.7,1.1,1.5
		c0.1,0.1,0.1,0.1,0.2,0.2h1.4c-0.1-0.2-0.3-0.3-0.4-0.5C-242.2,411.8-242.6,411.3-242.9,411.1z"/>
	<path class="st0" d="M-276.9,406.3c-0.3-0.1-0.5-0.2-0.7-0.2c-0.2,0-0.2,0.2-0.2,0.4c0.1,0.2,0.4,0.7,1.1,1.5
		c0.6,0.8,1.1,1.2,1.4,1.4c0.3,0.2,0.5,0.3,0.7,0.2c0.2,0,0.2-0.2,0.2-0.4c-0.1-0.2-0.4-0.7-1.1-1.5
		C-276.1,406.9-276.6,406.5-276.9,406.3z"/>
	<path class="st0" d="M-252.6,412.6c-0.1,0-0.2,0.1-0.2,0.2c0,0,0,0.1,0,0.2h1.1c-0.1-0.1-0.2-0.2-0.4-0.3
		C-252.3,412.6-252.5,412.6-252.6,412.6z"/>
	<path class="st0" d="M-273,402.5l-7,1.2v4.7c0,0,0.1,0.1,0.1,0.1c0.7,0.9,1.2,1.6,1.3,2c0,0.5-0.2,0.7-0.6,0.8c-0.1,0-0.3,0-0.5,0
		c0.5,1,1.5,1.6,2.7,1.6h0.8l11.3-2L-273,402.5z M-277.1,410.9l-0.8-1l0.9-0.1l0.8,1L-277.1,410.9z M-273.9,410.5
		c-0.4,0.1-1,0-1.6-0.4c-0.6-0.3-1.3-1-2.1-1.9c-0.8-0.9-1.2-1.6-1.3-2.1c0-0.4,0.2-0.7,0.6-0.8c0.4-0.1,1,0,1.6,0.4
		c0.6,0.3,1.3,1,2.1,1.9c0.8,0.9,1.2,1.6,1.3,2.1C-273.3,410.1-273.5,410.4-273.9,410.5z M-270.3,409.9c-0.4,0.1-1,0-1.6-0.4
		c-0.6-0.3-1.3-1-2.1-1.9c-0.8-0.9-1.2-1.6-1.3-2.1c0-0.5,0.2-0.7,0.6-0.8c0.4-0.1,1,0,1.6,0.4c0.6,0.3,1.3,1,2.1,1.9
		s1.2,1.6,1.3,2.1C-269.7,409.5-269.9,409.8-270.3,409.9z"/>
	<path class="st0" d="M-261.4,413h7.6c-0.1-0.2-0.1-0.3,0-0.5c0.1-0.3,0.3-0.4,0.7-0.5c0.4-0.1,0.8,0,1.3,0.2s0.8,0.5,1.1,0.8h2.8
		c0-0.1,0-0.3-0.2-0.5c-0.2-0.2-0.3-0.3-0.5-0.4c-0.2-0.1-0.4-0.1-0.5-0.1c-0.1,0-0.2,0.1-0.2,0.2c0,0.1,0,0.3,0.2,0.5l-0.9,0.2
		c-0.3-0.5-0.4-0.8-0.3-1.1c0.1-0.3,0.3-0.4,0.7-0.5c0.4-0.1,0.8,0,1.3,0.2s0.8,0.5,1.1,0.8c0.2,0.2,0.3,0.4,0.3,0.6
		c0,0,0,0.1,0,0.1h3.5c0,0-0.1-0.1-0.1-0.1c-0.8-1-1.3-1.7-1.3-2.1c0-0.5,0.2-0.7,0.6-0.8c0.5-0.1,1,0.1,1.6,0.4
		c0.5,0.4,1.2,1,2,1.9c0,0.2,0.1,0.5,0.1,0.7c1,0,1.9-0.5,2.4-1.3c0,0-0.1,0-0.1,0h-0.1c-0.5-0.6-0.9-1-1.1-1.2
		c-0.3-0.2-0.5-0.2-0.7-0.2c-0.2,0-0.3,0.2-0.2,0.4c0,0.1,0.3,0.5,0.7,1c-0.4,0-0.7,0-1,0.1c-0.5-0.7-0.8-1.2-0.8-1.5
		c0-0.5,0.2-0.7,0.6-0.8c0.5-0.1,1,0.1,1.6,0.4c0.4,0.2,0.9,0.6,1.4,1.2c0.1-0.3,0.2-0.7,0.2-1.1v-2.6l-25,4.4L-261.4,413z"/>
	<path class="st0" d="M-243.9,403.6c0.3,0.2,0.5,0.3,0.7,0.2c0.2,0,0.2-0.2,0.2-0.4c-0.1-0.2-0.4-0.7-1.1-1.5
		c-0.6-0.8-1.1-1.2-1.4-1.4c-0.3-0.1-0.6-0.2-0.7-0.2c-0.2,0-0.2,0.2-0.2,0.4c0.1,0.2,0.4,0.7,1.1,1.5
		C-244.7,403-244.2,403.4-243.9,403.6z"/>
	<path class="st0" d="M-273.3,405.7c-0.3-0.1-0.6-0.2-0.7-0.2c-0.2,0-0.2,0.2-0.2,0.4c0.1,0.2,0.4,0.7,1.1,1.5
		c0.6,0.8,1.1,1.2,1.4,1.4s0.5,0.3,0.7,0.2c0.2,0,0.2-0.2,0.2-0.4c-0.1-0.2-0.4-0.7-1.1-1.5C-272.5,406.3-273,405.9-273.3,405.7z"/>
	<path class="st0" d="M-240.4,403c0.3,0.2,0.5,0.3,0.7,0.2c0.2,0,0.2-0.2,0.2-0.4c-0.1-0.2-0.4-0.7-1.1-1.5
		c-0.6-0.8-1.1-1.2-1.4-1.4c-0.3-0.2-0.5-0.2-0.7-0.2s-0.2,0.2-0.2,0.4c0.1,0.2,0.4,0.7,1.1,1.5C-241.2,402.4-240.7,402.8-240.4,403
		z"/>
	<path class="st0" d="M-280,409.9v0.1c0,0.2,0,0.4,0.1,0.6c0.2,0,0.2-0.2,0.1-0.4C-279.8,410.1-279.9,410-280,409.9z"/>
	<path class="st0" d="M-240.5,388.9c-0.3-0.2-0.5-0.3-0.7-0.2c-0.2,0-0.2,0.2-0.2,0.4c0.1,0.2,0.4,0.7,1.1,1.5
		c0.6,0.8,1.1,1.2,1.4,1.4c0.3,0.2,0.5,0.3,0.7,0.2c0.2,0,0.2-0.2,0.2-0.4c-0.1-0.2-0.4-0.7-1.1-1.5
		C-239.7,389.5-240.2,389.1-240.5,388.9z"/>
	<path class="st0" d="M-244.7,389.3c-0.2,0-0.2,0.2-0.2,0.4c0.1,0.2,0.4,0.7,1.1,1.5c0.6,0.8,1.1,1.2,1.4,1.4
		c0.3,0.2,0.5,0.3,0.7,0.2c0.2,0,0.2-0.2,0.2-0.4c-0.1-0.2-0.4-0.7-1.1-1.5c-0.6-0.8-1.1-1.2-1.4-1.4S-244.6,389.3-244.7,389.3z"/>
	<path class="st0" d="M-280,392.7v0.8l7.5,7.8l34.9-6.2v-2c-0.4,0-0.9-0.1-1.4-0.4c-0.6-0.3-1.3-1-2.1-1.9c-0.8-0.9-1.2-1.6-1.3-2.1
		c-0.1-0.5,0.1-0.8,0.6-0.8c0.4-0.1,1,0,1.6,0.4c0.6,0.3,1.3,1,2.1,1.9c0.2,0.2,0.4,0.4,0.5,0.6v-1.7l-3.1-3.3L-280,392.7z
		 M-271.5,399l-3-3.6c0,0.4-0.2,0.7-0.5,0.9l-0.7-0.9c0.2-0.1,0.3-0.3,0.4-0.6c0.1-0.3,0-0.6-0.1-0.9l0.7-0.1l4.1,5L-271.5,399z
		 M-268.1,399.6l-0.5-0.4c0.1-0.1,0.2-0.2,0.2-0.3c0-0.1-0.1-0.3-0.3-0.5l-0.4,0.1l-0.9-0.9l0.9-0.2l0.6,0.7
		c0.3,0.4,0.5,0.7,0.6,0.9C-267.8,399.3-267.9,399.5-268.1,399.6z M-266.2,398l-3-3.6c0,0.4-0.2,0.7-0.5,0.9l-0.7-0.9
		c0.2-0.1,0.3-0.3,0.4-0.6s0-0.6-0.1-0.9l0.7-0.1l4.1,5L-266.2,398z M-262.3,397.5c-0.4,0.1-1,0-1.6-0.4c-0.6-0.3-1.3-1-2.1-1.9
		c-0.8-0.9-1.2-1.6-1.3-2.1c-0.1-0.5,0.1-0.7,0.6-0.8c0.4-0.1,1,0,1.6,0.4c0.6,0.3,1.3,1,2.1,1.9c0.8,0.9,1.2,1.6,1.3,2.1
		C-261.7,397.1-261.9,397.4-262.3,397.5z M-258.8,396.9c-0.4,0.1-1,0-1.6-0.4c-0.6-0.3-1.3-1-2.1-1.9c-0.8-0.9-1.2-1.6-1.3-2.1
		c0-0.5,0.2-0.7,0.6-0.8c0.4-0.1,1,0,1.6,0.4c0.6,0.3,1.3,1,2.1,1.9s1.2,1.6,1.3,2.1C-258.2,396.5-258.4,396.8-258.8,396.9z
		 M-255.6,397.3l-0.6-0.3c0.1-0.1,0.2-0.2,0.2-0.3c0-0.1-0.1-0.3-0.3-0.5l-0.4,0.1l-0.8-1l0.9-0.2l0.6,0.7c0.3,0.4,0.5,0.7,0.6,0.9
		C-255.3,397-255.4,397.2-255.6,397.3z M-253.4,395.9c-0.4,0.1-1,0-1.6-0.4c-0.6-0.3-1.3-1-2.1-1.9c-0.8-0.9-1.2-1.6-1.3-2.1
		c-0.1-0.4,0.1-0.7,0.6-0.8c0.4-0.1,1,0,1.6,0.4c0.6,0.3,1.3,1,2.1,1.9c0.8,0.9,1.2,1.6,1.3,2.1C-252.8,395.5-253,395.8-253.4,395.9
		z M-249.9,395.3c-0.4,0.1-1,0-1.6-0.4c-0.6-0.3-1.3-1-2.1-1.9c-0.8-0.9-1.2-1.6-1.3-2.1c0-0.5,0.2-0.7,0.6-0.8c0.4-0.1,1,0,1.6,0.4
		c0.6,0.3,1.3,1,2.1,1.9c0.8,0.9,1.2,1.6,1.3,2.1C-249.3,394.9-249.5,395.2-249.9,395.3z M-246.3,394.6c-0.4,0.1-1,0-1.6-0.4
		c-0.6-0.3-1.3-1-2.1-1.9c-0.8-0.9-1.2-1.6-1.3-2.1c-0.1-0.4,0.1-0.7,0.6-0.8c0.4-0.1,1,0,1.6,0.4c0.6,0.3,1.3,1,2.1,1.9
		c0.8,0.9,1.2,1.6,1.3,2.1C-245.7,394.2-245.9,394.5-246.3,394.6z M-244.2,394.1l-0.8-1l0.9-0.2l0.8,1L-244.2,394.1z M-241.7,390.8
		c0.8,0.9,1.2,1.6,1.3,2.1c0,0.4-0.2,0.7-0.6,0.8c-0.4,0.1-1,0-1.6-0.4c-0.6-0.3-1.3-1-2.1-1.9c-0.8-0.9-1.2-1.6-1.3-2.1
		c0-0.5,0.2-0.7,0.6-0.8c0.4-0.1,1,0,1.6,0.4C-243.2,389.2-242.5,389.9-241.7,390.8z"/>
	<path class="st0" d="M-261.8,392.7c-0.3-0.2-0.5-0.3-0.7-0.2c-0.2,0-0.2,0.2-0.2,0.4c0.1,0.2,0.4,0.7,1.1,1.5
		c0.6,0.8,1.1,1.2,1.4,1.4s0.5,0.3,0.7,0.2c0.2,0,0.2-0.2,0.2-0.4c-0.1-0.2-0.4-0.7-1.1-1.5C-261,393.3-261.5,392.9-261.8,392.7z"/>
	<path class="st0" d="M-240.6,381h-3.1l3.5,3.6l2.6-0.5V384C-237.6,382.3-238.9,381-240.6,381z"/>
	<polygon class="st0" points="-237.6,387.4 -237.6,385.3 -239.3,385.6 	"/>
	<path class="st0" d="M-249.4,390.4c-0.3-0.1-0.5-0.2-0.7-0.2c-0.2,0-0.2,0.2-0.2,0.4c0.1,0.2,0.4,0.7,1.1,1.5
		c0.6,0.8,1.1,1.2,1.4,1.4s0.5,0.3,0.7,0.2c0.2,0,0.2-0.2,0.2-0.4c-0.1-0.2-0.4-0.7-1.1-1.5C-248.6,391-249.1,390.6-249.4,390.4z"/>
	<path class="st0" d="M-256.3,383.7c0.3,0.2,0.5,0.3,0.7,0.2c0.2,0,0.2-0.2,0.2-0.4c-0.1-0.2-0.4-0.7-1.1-1.5
		c-0.3-0.5-0.6-0.8-0.9-1h-1.3c0.2,0.3,0.5,0.7,1,1.3C-257,383-256.6,383.5-256.3,383.7z"/>
	<path class="st0" d="M-259.9,384.3c0.3,0.2,0.5,0.3,0.7,0.2c0.2,0,0.2-0.1,0.2-0.3c-0.1-0.2-0.4-0.7-1.1-1.5
		c-0.6-0.8-1.1-1.2-1.4-1.4s-0.5-0.3-0.7-0.3s-0.2,0.2-0.2,0.4c0.1,0.2,0.4,0.7,1.1,1.5C-260.7,383.7-260.2,384.1-259.9,384.3z"/>
	<path class="st0" d="M-256.5,391.7c-0.3-0.1-0.5-0.2-0.7-0.2s-0.2,0.2-0.2,0.4c0.1,0.2,0.4,0.7,1.1,1.5c0.6,0.8,1.1,1.2,1.4,1.4
		c0.3,0.2,0.5,0.3,0.7,0.2c0.2,0,0.2-0.2,0.2-0.4c-0.1-0.2-0.4-0.7-1.1-1.5C-255.7,392.3-256.2,391.9-256.5,391.7z"/>
	<path class="st0" d="M-251,382.8c0.3,0.2,0.5,0.2,0.7,0.2c0.2-0.1,0.2-0.2,0.2-0.4c-0.1-0.2-0.5-0.7-1.1-1.5c0,0-0.1-0.1-0.1-0.1
		h-1.4c0.1,0.1,0.2,0.3,0.3,0.4C-251.7,382.1-251.3,382.6-251,382.8z"/>
	<path class="st0" d="M-252.9,391.1c-0.3-0.2-0.5-0.3-0.7-0.2c-0.2,0-0.2,0.2-0.2,0.4c0.1,0.2,0.4,0.7,1.1,1.5
		c0.6,0.8,1.1,1.2,1.4,1.4s0.5,0.3,0.7,0.2c0.2,0,0.2-0.2,0.2-0.4c-0.1-0.2-0.4-0.7-1.1-1.5C-252.1,391.7-252.6,391.3-252.9,391.1z"
		/>
	<path class="st0" d="M-247.4,382.1c0.3,0.2,0.5,0.2,0.7,0.2c0.2-0.1,0.3-0.2,0.2-0.4c-0.1-0.1-0.3-0.4-0.6-0.9h-1.4
		C-248,381.5-247.7,381.9-247.4,382.1z"/>
	<path d="M-275.4,393.9c0.1,0.3,0.2,0.6,0.1,0.9c-0.1,0.3-0.2,0.5-0.4,0.6l0.7,0.9c0.3-0.2,0.5-0.5,0.5-0.9l3,3.6l0.9-0.2l-4.1-5
		L-275.4,393.9z"/>
	<path d="M-268.5,398.1l-0.6-0.7l-0.9,0.2l0.9,0.9l0.4-0.1c0.2,0.2,0.3,0.4,0.3,0.5c0,0.1-0.1,0.2-0.2,0.3l0.5,0.4
		c0.2-0.1,0.3-0.3,0.2-0.6C-268,398.8-268.2,398.5-268.5,398.1z"/>
	<path d="M-270.1,392.9c0.1,0.3,0.2,0.6,0.1,0.9s-0.2,0.5-0.4,0.6l0.7,0.9c0.3-0.2,0.5-0.5,0.5-0.9l3,3.6l0.9-0.2l-4.1-5
		L-270.1,392.9z"/>
	<path d="M-265.1,392.7c-0.6-0.4-1.2-0.5-1.6-0.4c-0.5,0.1-0.7,0.3-0.6,0.8c0.1,0.5,0.5,1.2,1.3,2.1c0.8,0.9,1.5,1.6,2.1,1.9
		c0.6,0.4,1.2,0.5,1.6,0.4c0.4-0.1,0.6-0.4,0.6-0.8c-0.1-0.5-0.5-1.2-1.3-2.1C-263.8,393.7-264.5,393-265.1,392.7z M-263.1,396.6
		c-0.2,0.1-0.4,0-0.7-0.2c-0.3-0.2-0.8-0.6-1.4-1.4c-0.7-0.8-1-1.3-1.1-1.5c0-0.2,0-0.4,0.2-0.4c0.2,0,0.4,0.1,0.7,0.3
		c0.3,0.2,0.8,0.6,1.4,1.4c0.6,0.7,1,1.2,1.1,1.4C-262.9,396.4-262.9,396.6-263.1,396.6z"/>
	<path d="M-261.6,392.1c-0.6-0.4-1.2-0.5-1.6-0.4c-0.4,0.1-0.6,0.3-0.6,0.8c0.1,0.5,0.5,1.2,1.3,2.1c0.8,0.9,1.5,1.6,2.1,1.9
		c0.6,0.4,1.2,0.5,1.6,0.4c0.4-0.1,0.6-0.4,0.6-0.8c-0.1-0.5-0.5-1.2-1.3-2.1S-261,392.4-261.6,392.1z M-259.5,396
		c-0.2,0.1-0.4,0-0.7-0.2s-0.8-0.6-1.4-1.4c-0.7-0.8-1-1.3-1.1-1.5c0-0.2,0-0.4,0.2-0.4c0.2-0.1,0.4,0,0.7,0.2s0.8,0.6,1.4,1.4
		c0.7,0.8,1,1.3,1.1,1.5C-259.3,395.8-259.3,396-259.5,396z"/>
	<path d="M-256,395.8l-0.6-0.7l-0.9,0.2l0.8,1l0.4-0.1c0.2,0.2,0.3,0.4,0.3,0.5c0,0.1-0.1,0.2-0.2,0.3l0.6,0.3
		c0.2-0.1,0.3-0.3,0.2-0.6C-255.5,396.5-255.7,396.2-256,395.8z"/>
	<path d="M-256.2,391.1c-0.6-0.4-1.2-0.5-1.6-0.4c-0.5,0.1-0.7,0.4-0.6,0.8c0.1,0.5,0.5,1.2,1.3,2.1c0.8,0.9,1.5,1.6,2.1,1.9
		c0.6,0.4,1.2,0.5,1.6,0.4c0.4-0.1,0.6-0.4,0.6-0.8c-0.1-0.5-0.5-1.2-1.3-2.1C-254.9,392.1-255.6,391.4-256.2,391.1z M-254.2,395
		c-0.2,0.1-0.4,0-0.7-0.2c-0.3-0.2-0.8-0.6-1.4-1.4c-0.7-0.8-1-1.3-1.1-1.5c0-0.2,0-0.4,0.2-0.4s0.4,0.1,0.7,0.2
		c0.3,0.2,0.8,0.6,1.4,1.4c0.7,0.8,1,1.3,1.1,1.5C-254,394.8-254,395-254.2,395z"/>
	<path d="M-252.7,390.5c-0.6-0.4-1.2-0.5-1.6-0.4c-0.4,0.1-0.6,0.3-0.6,0.8c0.1,0.5,0.5,1.2,1.3,2.1c0.8,0.9,1.5,1.6,2.1,1.9
		c0.6,0.4,1.2,0.5,1.6,0.4c0.4-0.1,0.6-0.4,0.6-0.8c-0.1-0.5-0.5-1.2-1.3-2.1C-251.4,391.5-252.1,390.8-252.7,390.5z M-250.6,394.4
		c-0.2,0.1-0.4,0-0.7-0.2s-0.8-0.6-1.4-1.4c-0.7-0.8-1-1.3-1.1-1.5c0-0.2,0-0.4,0.2-0.4c0.2-0.1,0.4,0,0.7,0.2
		c0.3,0.2,0.8,0.6,1.4,1.4c0.7,0.8,1,1.3,1.1,1.5C-250.4,394.2-250.4,394.4-250.6,394.4z"/>
	<path d="M-249.1,389.8c-0.6-0.4-1.2-0.5-1.6-0.4c-0.5,0.1-0.7,0.4-0.6,0.8c0.1,0.5,0.5,1.2,1.3,2.1c0.8,0.9,1.5,1.6,2.1,1.9
		c0.6,0.4,1.2,0.5,1.6,0.4c0.4-0.1,0.6-0.4,0.6-0.8c-0.1-0.5-0.5-1.2-1.3-2.1C-247.8,390.8-248.5,390.1-249.1,389.8z M-247.1,393.7
		c-0.2,0.1-0.4,0-0.7-0.2s-0.8-0.6-1.4-1.4c-0.7-0.8-1-1.3-1.1-1.5c0-0.2,0-0.4,0.2-0.4c0.2,0,0.4,0.1,0.7,0.2
		c0.3,0.2,0.8,0.6,1.4,1.4c0.7,0.8,1,1.3,1.1,1.5C-246.9,393.5-246.9,393.7-247.1,393.7z"/>
	<polygon points="-245,393.1 -244.2,394.1 -243.3,393.9 -244.1,392.9 	"/>
	<path d="M-245.4,388.5c-0.4,0.1-0.6,0.3-0.6,0.8c0.1,0.5,0.5,1.2,1.3,2.1c0.8,0.9,1.5,1.6,2.1,1.9c0.6,0.4,1.2,0.5,1.6,0.4
		c0.4-0.1,0.6-0.4,0.6-0.8c-0.1-0.5-0.5-1.2-1.3-2.1c-0.8-0.9-1.5-1.6-2.1-1.9C-244.4,388.5-245,388.4-245.4,388.5z M-242.6,390.9
		c0.7,0.8,1,1.3,1.1,1.5c0,0.2,0,0.4-0.2,0.4c-0.2,0.1-0.4,0-0.7-0.2c-0.3-0.2-0.8-0.6-1.4-1.4c-0.7-0.8-1-1.3-1.1-1.5
		c0-0.2,0-0.4,0.2-0.4c0.1,0,0.4,0,0.7,0.2S-243.2,390.1-242.6,390.9z"/>
	<path d="M-263.3,404.3l1-0.1c-0.4-0.5-0.4-0.8,0-0.9c0.2,0,0.4,0,0.6,0.1c0.2,0.1,0.4,0.3,0.6,0.5c0.2,0.2,0.3,0.4,0.3,0.6
		c0.1,0.1,0.1,0.4,0,0.9c-0.1,0.6-0.1,1.1,0,1.4c0.1,0.3,0.2,0.7,0.5,1l3.1-0.6l-0.8-0.9l-2,0.5c0-0.1,0-0.2,0-0.3s0.1-0.4,0.1-0.7
		c0-0.4,0-0.7,0-0.9c0-0.2-0.1-0.4-0.2-0.6c-0.1-0.2-0.2-0.4-0.4-0.6c-0.3-0.4-0.7-0.7-1.2-0.9c-0.4-0.2-0.9-0.3-1.4-0.2
		c-0.4,0-0.6,0.2-0.7,0.5C-263.8,403.4-263.7,403.8-263.3,404.3z"/>
	<path d="M-256.6,406.6c0.6,0.4,1.2,0.5,1.6,0.4s0.6-0.4,0.6-0.8c-0.1-0.5-0.5-1.2-1.3-2.1c-0.8-0.9-1.5-1.6-2.1-1.9
		c-0.6-0.4-1.2-0.5-1.6-0.4c-0.4,0-0.6,0.3-0.6,0.8c0.1,0.5,0.5,1.2,1.3,2.1C-257.9,405.6-257.2,406.3-256.6,406.6z M-258.7,402.6
		c0.2-0.1,0.4,0,0.7,0.2s0.8,0.6,1.4,1.4c0.7,0.8,1,1.3,1.1,1.5c0,0.2,0,0.4-0.2,0.4c-0.2,0.1-0.4,0-0.7-0.2
		c-0.3-0.2-0.8-0.6-1.4-1.4c-0.7-0.8-1-1.3-1.1-1.5C-258.9,402.8-258.9,402.6-258.7,402.6z"/>
	<path d="M-255.1,402.6c-0.1-0.2-0.2-0.4-0.2-0.5c0-0.1,0.1-0.2,0.2-0.2c0.2,0,0.3,0,0.5,0.1c0.2,0.1,0.4,0.2,0.5,0.4
		c0.2,0.2,0.2,0.4,0.2,0.5c0,0.2-0.2,0.3-0.4,0.3l0.6,0.8c0.1,0,0.2-0.1,0.3-0.1c0.2-0.1,0.4,0,0.6,0.1c0.3,0.1,0.5,0.3,0.7,0.5
		c0.2,0.2,0.3,0.4,0.3,0.6c0,0.2-0.1,0.3-0.3,0.3c-0.2,0-0.4,0-0.6-0.1c-0.3-0.1-0.5-0.3-0.7-0.5l-0.8,0.3c0.4,0.4,0.9,0.7,1.6,0.6
		c0.5,0.2,0.9,0.3,1.3,0.2c0.4,0,0.6-0.2,0.7-0.6c0.1-0.3-0.1-0.7-0.5-1.2c-0.3-0.3-0.6-0.5-0.9-0.7c-0.4-0.2-0.7-0.3-1-0.3
		c0.1-0.1,0.1-0.3,0.1-0.5c0-0.2-0.1-0.4-0.3-0.6c-0.3-0.3-0.6-0.6-1.1-0.8c-0.4-0.2-0.9-0.3-1.3-0.2c-0.4,0.1-0.6,0.2-0.7,0.5
		c-0.1,0.3,0,0.6,0.3,1.1H-255.1z"/>
	<path d="M-248.6,405.3l-0.6-0.7l-0.9,0.2l0.9,0.9l0.4-0.1c0.2,0.2,0.3,0.4,0.3,0.5c0,0.1-0.1,0.2-0.2,0.3l0.5,0.4
		c0.2-0.1,0.3-0.3,0.2-0.6C-248.1,406-248.3,405.7-248.6,405.3z"/>
	<path d="M-247.7,405c0.6,0.4,1.2,0.5,1.6,0.4c0.4-0.1,0.6-0.4,0.6-0.8c-0.1-0.5-0.5-1.2-1.3-2.1s-1.5-1.6-2.1-1.9
		c-0.6-0.4-1.2-0.5-1.6-0.4c-0.4,0.1-0.6,0.3-0.6,0.8c0.1,0.5,0.5,1.2,1.3,2.1C-249,404-248.3,404.7-247.7,405z M-249.8,401
		c0.2-0.1,0.4,0,0.7,0.2c0.3,0.2,0.8,0.6,1.4,1.4c0.7,0.8,1,1.3,1.1,1.5c0,0.2,0,0.4-0.2,0.4c-0.2,0.1-0.4,0-0.7-0.2
		s-0.8-0.6-1.4-1.4c-0.7-0.8-1-1.3-1.1-1.5C-250,401.1-250,401-249.8,401z"/>
	<path d="M-246.2,402.4c0.8,0.9,1.5,1.6,2.1,1.9c0.6,0.4,1.2,0.5,1.6,0.4c0.4-0.1,0.6-0.4,0.6-0.8c-0.1-0.5-0.5-1.2-1.3-2.1
		c-0.8-0.9-1.5-1.6-2.1-1.9c-0.6-0.4-1.2-0.5-1.6-0.4c-0.5,0.1-0.7,0.4-0.6,0.8C-247.4,400.8-247,401.5-246.2,402.4z M-246.2,400.3
		c0.1,0,0.4,0.1,0.7,0.2c0.3,0.2,0.8,0.6,1.4,1.4c0.7,0.8,1,1.3,1.1,1.5c0,0.2,0,0.4-0.2,0.4c-0.2,0.1-0.4,0-0.7-0.2
		c-0.3-0.2-0.8-0.6-1.4-1.4c-0.7-0.8-1-1.3-1.1-1.5C-246.4,400.5-246.4,400.3-246.2,400.3z"/>
	<path d="M-240.6,403.7c0.6,0.4,1.2,0.5,1.6,0.4c0.4-0.1,0.6-0.4,0.6-0.8c-0.1-0.5-0.5-1.2-1.3-2.1c-0.8-0.9-1.5-1.6-2.1-1.9
		c-0.6-0.4-1.2-0.5-1.6-0.4c-0.4,0.1-0.6,0.3-0.6,0.8c0.1,0.5,0.5,1.2,1.3,2.1C-241.9,402.7-241.2,403.4-240.6,403.7z M-242.7,399.7
		c0.2,0,0.4,0,0.7,0.2c0.3,0.2,0.8,0.6,1.4,1.4c0.7,0.8,1,1.3,1.1,1.5c0,0.2,0,0.4-0.2,0.4c-0.2,0.1-0.4,0-0.7-0.2
		c-0.3-0.2-0.8-0.6-1.4-1.4c-0.7-0.8-1-1.3-1.1-1.5C-242.9,399.9-242.9,399.7-242.7,399.7z"/>
	<path d="M-235.5,401.6V400c0,0,0.1,0.1,0.1,0.1V399c0,0-0.1-0.1-0.1-0.1v-3v-1.1v-3.5v-1.7v-4.7V384v-0.2l0,0
		c-0.2-2.7-2.3-4.8-5.1-4.8h-5h-1.6h-0.8h-1h-0.1h-0.8h-1h-1.5h-2.1h-10h-6.6h-5.9c-2.8,0-5,2.2-5,5v7.4v0.6v1v0.1v2.9v0.8v1.6
		c0,0,0-0.1-0.1-0.1v1.2c0,0,0.1,0.1,0.1,0.1v3.4v1.1v2.6v0.8v1.5v1v0.1c0,0,0,0,0,0c0.1,2.7,2.2,4.9,5,4.9h15.9h1.6h9.7
		c0,0,0.1,0.1,0.1,0.1h1.1c0,0-0.1-0.1-0.1-0.1h2.9c0,0,0,0.1,0,0.1h1.1c0,0,0-0.1-0.1-0.1h4.3c2.8,0,5-2.2,5-5v-3v-1.2v-3.3
		c0,0,0.1,0.1,0.1,0.1v-1H-235.5z M-247.1,381c0.3,0.5,0.6,0.8,0.6,0.9c0.1,0.2,0,0.3-0.2,0.4c-0.2,0-0.4,0-0.7-0.2
		c-0.3-0.2-0.6-0.6-1.1-1.1H-247.1z M-251.3,381C-251.3,381-251.2,381.1-251.3,381c0.7,0.9,1.1,1.4,1.2,1.6c0,0.2,0,0.3-0.2,0.4
		c-0.2,0-0.4,0-0.7-0.2s-0.7-0.7-1.4-1.4c-0.1-0.1-0.2-0.3-0.3-0.4H-251.3z M-257.4,381c0.3,0.2,0.6,0.5,0.9,1
		c0.7,0.8,1,1.3,1.1,1.5c0,0.2,0,0.4-0.2,0.4c-0.2,0.1-0.4,0-0.7-0.2s-0.7-0.7-1.4-1.4c-0.5-0.6-0.8-1-1-1.3H-257.4z M-262.2,381
		c0.2,0,0.4,0.1,0.7,0.3s0.8,0.6,1.4,1.4c0.7,0.8,1,1.3,1.1,1.5c0,0.2,0,0.3-0.2,0.3c-0.2,0.1-0.4,0-0.7-0.2
		c-0.3-0.2-0.8-0.6-1.4-1.4c-0.7-0.8-1-1.3-1.1-1.5C-262.4,381.2-262.4,381-262.2,381z M-265.7,381.7c0.2-0.1,0.4,0,0.7,0.2
		c0.3,0.2,0.8,0.6,1.4,1.4c0.7,0.8,1,1.3,1.1,1.5c0,0.2,0,0.4-0.2,0.4c-0.2,0.1-0.4,0-0.7-0.2c-0.3-0.2-0.8-0.6-1.4-1.4
		c-0.7-0.8-1-1.3-1.1-1.5C-265.9,381.9-265.9,381.7-265.7,381.7z M-280,384c0-1.7,1.3-3,3-3h10.3c-0.2,0.1-0.3,0.3-0.3,0.7
		c0.1,0.5,0.5,1.2,1.3,2.1c0.8,0.9,1.5,1.6,2.1,1.9c0.6,0.4,1.2,0.5,1.6,0.4c0.4-0.1,0.6-0.4,0.6-0.8c-0.1-0.5-0.5-1.2-1.3-2.1
		c-0.8-0.9-1.5-1.6-2.1-1.9c-0.2-0.1-0.4-0.2-0.6-0.3h2c0,0.4,0.4,1.1,1.3,2.1c0.8,0.9,1.5,1.6,2.1,1.9c0.6,0.4,1.2,0.5,1.6,0.4
		c0.4-0.1,0.6-0.4,0.6-0.8c-0.1-0.5-0.5-1.2-1.3-2.1c-0.6-0.6-1.1-1.1-1.5-1.5h0.9c0.2,0.4,0.5,0.9,1.1,1.5c0.8,0.9,1.5,1.6,2.1,1.9
		c0.6,0.4,1.2,0.5,1.6,0.4c0.4-0.1,0.6-0.4,0.6-0.8c-0.1-0.5-0.5-1.2-1.3-2.1c-0.3-0.3-0.6-0.6-0.8-0.9h2.8c0.1,0.2,0.2,0.3,0.4,0.5
		c0.8,1,1.5,1.6,2.1,1.9c0.6,0.3,1.1,0.5,1.6,0.4c0.4-0.1,0.6-0.4,0.6-0.8c0-0.4-0.5-1.1-1.2-2h0.7c0.7,0.9,1.4,1.4,1.9,1.7
		c0.6,0.3,1.1,0.5,1.6,0.4c0.4-0.1,0.6-0.3,0.6-0.8c0-0.3-0.3-0.7-0.7-1.3h0.8l3.7,3.9l-38.4,6.8V384z M-280,399.1
		c0.2,0.3,0.3,0.5,0.4,0.6c0.1,0.2,0,0.3-0.2,0.4c-0.1,0-0.1,0-0.2,0V399.1z M-280,400.9c0.3,0.1,0.5,0.1,0.8,0.1
		c0.4-0.1,0.6-0.3,0.6-0.8c0-0.6-0.4-1.3-1.2-2.2c-0.1-0.1-0.1-0.1-0.2-0.2v-2.7l6.1,6.5l-6.1,1.1V400.9z M-279.9,410.6
		c0-0.2-0.1-0.4-0.1-0.6v-0.1c0.1,0.1,0.2,0.2,0.2,0.3C-279.7,410.4-279.8,410.5-279.9,410.6z M-277,413c-1.2,0-2.2-0.6-2.7-1.6
		c0.2,0,0.3,0,0.5,0c0.4-0.1,0.6-0.3,0.6-0.8c-0.1-0.4-0.6-1.1-1.3-2c0,0-0.1-0.1-0.1-0.1v-4.7l7-1.2l8.1,8.5l-11.3,2H-277z
		 M-269.4,413l5.5-1l0.9,1H-269.4z M-252.8,413c0-0.1,0-0.2,0-0.2c0-0.1,0.1-0.2,0.2-0.2c0.1,0,0.3,0,0.5,0.1
		c0.2,0.1,0.3,0.2,0.4,0.3H-252.8z M-242.5,413c-0.1-0.1-0.1-0.1-0.2-0.2c-0.6-0.8-1-1.3-1.1-1.5c-0.1-0.2,0-0.4,0.2-0.4
		c0.2,0,0.4,0,0.7,0.2c0.3,0.2,0.7,0.7,1.4,1.4c0.2,0.2,0.3,0.3,0.4,0.5H-242.5z M-237.6,410c0,0.4-0.1,0.7-0.2,1.1
		c-0.5-0.5-1-0.9-1.4-1.2c-0.6-0.3-1.1-0.5-1.6-0.4c-0.4,0.1-0.6,0.3-0.6,0.8c0,0.3,0.3,0.8,0.8,1.5c0.3-0.1,0.6-0.1,1-0.1
		c-0.4-0.5-0.7-0.9-0.7-1c-0.1-0.2,0-0.4,0.2-0.4c0.2,0,0.4,0,0.7,0.2c0.2,0.2,0.6,0.6,1.1,1.2h0.1c0,0,0.1,0,0.1,0
		c-0.5,0.8-1.4,1.3-2.4,1.3c0-0.2,0-0.5-0.1-0.7c-0.8-0.9-1.5-1.5-2-1.9c-0.6-0.3-1.1-0.5-1.6-0.4c-0.4,0.1-0.6,0.3-0.6,0.8
		c0,0.4,0.5,1.1,1.3,2.1c0,0,0.1,0.1,0.1,0.1h-3.5c0,0,0-0.1,0-0.1c0-0.2-0.1-0.4-0.3-0.6c-0.3-0.3-0.6-0.6-1.1-0.8
		s-0.9-0.3-1.3-0.2c-0.4,0.1-0.6,0.2-0.7,0.5c-0.1,0.3,0,0.6,0.3,1.1l0.9-0.2c-0.2-0.2-0.2-0.4-0.2-0.5c0-0.1,0.1-0.2,0.2-0.2
		c0.1,0,0.3,0,0.5,0.1c0.2,0.1,0.3,0.2,0.5,0.4c0.2,0.2,0.2,0.4,0.2,0.5h-2.8c-0.3-0.3-0.6-0.6-1.1-0.8s-0.9-0.3-1.3-0.2
		c-0.4,0.1-0.6,0.2-0.7,0.5c-0.1,0.2,0,0.3,0,0.5h-7.6l-1.2-1.2l25-4.4V410z M-237.6,397.9c-0.1,0-0.3,0-0.4,0
		c-0.4,0.1-0.6,0.3-0.6,0.8c0,0.3,0.4,0.9,1,1.7v2.1l-0.1,0l0.1,0.1v3.5l-25.9,4.6l-8.1-8.5l34-6V397.9z M-237.6,390.8
		c-0.1-0.2-0.3-0.4-0.5-0.6c-0.8-0.9-1.5-1.6-2.1-1.9c-0.6-0.4-1.2-0.5-1.6-0.4c-0.5,0-0.7,0.3-0.6,0.8c0.1,0.5,0.5,1.2,1.3,2.1
		c0.8,0.9,1.5,1.6,2.1,1.9c0.5,0.3,1,0.5,1.4,0.4v2l-34.9,6.2l-7.5-7.8v-0.8l39.3-6.9l3.1,3.3V390.8z M-238,391.8
		c0,0.2,0,0.4-0.2,0.4c-0.2,0.1-0.4,0-0.7-0.2c-0.3-0.2-0.8-0.6-1.4-1.4c-0.7-0.8-1-1.3-1.1-1.5c0-0.2,0-0.4,0.2-0.4
		c0.2-0.1,0.4,0,0.7,0.2c0.3,0.2,0.8,0.6,1.4,1.4C-238.4,391.1-238.1,391.6-238,391.8z M-237.6,387.4l-1.7-1.8l1.7-0.3V387.4z
		 M-237.6,384.2l-2.6,0.5l-3.5-3.6h3.1c1.7,0,3,1.3,3,3V384.2z"/>
	<path d="M-278.8,383.1c0.1,0.3,0.2,0.6,0.1,0.9c0,0.3-0.1,0.5-0.3,0.6l0.8,0.8c0.3-0.2,0.5-0.5,0.5-0.9l3,3.6l0.9-0.1l-4.3-5
		L-278.8,383.1z"/>
	<path d="M-272.1,386.7c0-0.1,0-0.2,0-0.3c0-0.1,0.1-0.4,0.1-0.7c0-0.4,0-0.7,0-0.9c-0.1-0.2-0.1-0.4-0.2-0.6
		c-0.1-0.2-0.3-0.4-0.5-0.6c-0.3-0.4-0.7-0.7-1.2-0.9c-0.4-0.2-0.9-0.3-1.4-0.2c-0.4,0-0.6,0.2-0.7,0.5s0.1,0.7,0.4,1.3l1-0.1
		c-0.4-0.6-0.4-0.9,0-0.9c0.2-0.1,0.4,0,0.6,0.1c0.2,0,0.4,0.2,0.5,0.5c0.2,0.2,0.3,0.4,0.3,0.6c0.1,0.1,0.1,0.4,0,0.9
		c0,0.6,0,1,0.1,1.4c0.1,0.3,0.2,0.7,0.5,1l3.1-0.6l-0.8-0.9L-272.1,386.7z"/>
	<path d="M-271.5,381.8c0.1,0.3,0.2,0.6,0.1,0.9c-0.1,0.3-0.2,0.5-0.4,0.6l0.7,0.9c0.3-0.2,0.5-0.5,0.5-0.9l3,3.6l0.9-0.2l-4.3-5
		L-271.5,381.8z"/>
	<path d="M-264.6,386l-0.6-0.7l-0.9,0.2l0.9,0.9l0.4-0.1c0.2,0.2,0.3,0.4,0.3,0.5c0,0.1-0.1,0.2-0.2,0.3l0.5,0.4
		c0.2-0.1,0.3-0.3,0.2-0.6C-264.1,386.7-264.3,386.4-264.6,386z"/>
	<polygon points="-253.6,383.2 -252.8,384.2 -251.9,384 -252.7,383 	"/>
	<polygon points="-277.9,409.9 -277.1,410.9 -276.2,410.8 -277,409.8 	"/>
	<path d="M-276.7,405.7c-0.6-0.4-1.2-0.5-1.6-0.4c-0.4,0.1-0.6,0.4-0.6,0.8c0.1,0.5,0.5,1.2,1.3,2.1c0.8,0.9,1.5,1.6,2.1,1.9
		c0.6,0.4,1.2,0.5,1.6,0.4c0.4-0.1,0.6-0.4,0.6-0.8c-0.1-0.5-0.5-1.2-1.3-2.1C-275.4,406.7-276.1,406-276.7,405.7z M-274.6,409.6
		c-0.2,0.1-0.4,0-0.7-0.2c-0.3-0.2-0.8-0.6-1.4-1.4c-0.7-0.8-1-1.3-1.1-1.5c0-0.2,0-0.4,0.2-0.4c0.2,0,0.4,0.1,0.7,0.2
		c0.3,0.2,0.8,0.6,1.4,1.4c0.7,0.8,1,1.3,1.1,1.5C-274.4,409.4-274.4,409.6-274.6,409.6z"/>
	<path d="M-271,407c-0.8-0.9-1.5-1.6-2.1-1.9c-0.6-0.4-1.2-0.5-1.6-0.4c-0.4,0.1-0.6,0.3-0.6,0.8c0.1,0.5,0.5,1.2,1.3,2.1
		c0.8,0.9,1.5,1.6,2.1,1.9c0.6,0.4,1.2,0.5,1.6,0.4c0.4-0.1,0.6-0.4,0.6-0.8C-269.8,408.6-270.2,407.9-271,407z M-271,409
		c-0.2,0.1-0.4,0-0.7-0.2s-0.8-0.6-1.4-1.4c-0.7-0.8-1-1.3-1.1-1.5c0-0.2,0-0.4,0.2-0.4c0.1,0,0.4,0.1,0.7,0.2
		c0.3,0.2,0.8,0.6,1.4,1.4c0.7,0.8,1,1.3,1.1,1.5C-270.8,408.8-270.8,409-271,409z"/>
</g>
</svg>
