<?xml version="1.0" encoding="utf-8"?>
<!-- Generated by IcoMoon.io -->
<!DOCTYPE svg PUBLIC "-//W3C//DTD SVG 1.1//EN" "http://www.w3.org/Graphics/SVG/1.1/DTD/svg11.dtd">
<svg version="1.1" xmlns="http://www.w3.org/2000/svg" xmlns:xlink="http://www.w3.org/1999/xlink" width="41" height="32" viewBox="0 0 41 32">
<g>
</g>
	<path d="M36.625 0.372h-31.575c-2.378 0-4.306 1.908-4.306 4.262v22.732c0 2.354 1.927 4.262 4.306 4.262h31.574c2.378 0 4.306-1.908 4.306-4.262v-22.732c0-2.354-1.927-4.262-4.305-4.262zM8.667 22.037c-0.613 0-1.111-0.498-1.111-1.111s0.498-1.111 1.111-1.111 1.111 0.498 1.111 1.111-0.497 1.111-1.111 1.111zM8.667 18.778c-0.613 0-1.111-0.498-1.111-1.111s0.498-1.111 1.111-1.111 1.111 0.498 1.111 1.111-0.497 1.111-1.111 1.111zM8.667 15.407c-0.613 0-1.111-0.498-1.111-1.111s0.498-1.111 1.111-1.111 1.111 0.498 1.111 1.111-0.497 1.111-1.111 1.111zM8.667 12.111c-0.613 0-1.111-0.498-1.111-1.111s0.498-1.111 1.111-1.111 1.111 0.498 1.111 1.111-0.497 1.111-1.111 1.111zM18.852 21.704h-7.185c-0.429 0-0.778-0.348-0.778-0.778s0.348-0.778 0.778-0.778h7.185c0.429 0 0.778 0.348 0.778 0.778s-0.348 0.778-0.778 0.778zM18.852 18.444h-7.185c-0.429 0-0.778-0.348-0.778-0.778s0.348-0.778 0.778-0.778h7.185c0.429 0 0.778 0.348 0.778 0.778s-0.348 0.778-0.778 0.778zM18.852 15.074h-7.185c-0.429 0-0.778-0.348-0.778-0.778s0.348-0.778 0.778-0.778h7.185c0.429 0 0.778 0.348 0.778 0.778s-0.348 0.778-0.778 0.778zM18.852 11.778h-7.185c-0.429 0-0.778-0.348-0.778-0.778s0.348-0.778 0.778-0.778h7.185c0.429 0 0.778 0.348 0.778 0.778s-0.348 0.778-0.778 0.778zM28.444 22.815c-3.764 0-6.815-3.052-6.815-6.815 0-1.121 0.75-3.112 0.75-3.112l6.065 3.112-1.566-6.635c0 0 1.028-0.18 1.566-0.18 3.764 0 6.815 3.052 6.815 6.815 0 3.764-3.052 6.815-6.815 6.815zM33.209 6.47h-25.116c-1.284 0-2.325-0.416-2.325-0.93s1.041-0.93 2.325-0.93h25.116c1.284 0 2.325 0.416 2.325 0.93s-1.040 0.93-2.325 0.93z" fill="#ffffff" />
</svg>
