<svg id="Layer_1" data-name="Layer 1" xmlns="http://www.w3.org/2000/svg" viewBox="0 0 28 34.8"><defs><style>.cls-1{fill:none;}</style></defs><title>cv_2016_left2-g</title><path class="cls-1" d="M17.6,8.1V2.3H7.4a2,2,0,0,0-1.8.9,2.84,2.84,0,0,0-.4,1.3V27.3a2.22,2.22,0,0,0,2.2,2.2H23.6a2.51,2.51,0,0,0,1.4-.6,2.14,2.14,0,0,0,.8-1.7v-16H20.6A3,3,0,0,1,17.6,8.1Zm-2.3,2.4a3.4,3.4,0,1,1-3.4,3.4A3.4,3.4,0,0,1,15.3,10.5Zm7.1,9.2v6.8H8.5V19.7c0-1.1,1.2-2,2.6-2h8.7C21.2,17.7,22.4,18.6,22.4,19.7Z"/><path class="cls-1" d="M3,27.3V6l-0.3.3a1.9,1.9,0,0,0-.5,1.3V30.4a2.22,2.22,0,0,0,2.2,2.2H20.7a2.11,2.11,0,0,0,1.3-.5l0.4-.4H7.4A4.44,4.44,0,0,1,3,27.3Z"/><circle cx="15.3" cy="13.9" r="3.4"/><path d="M11.1,17.7c-1.4,0-2.6.9-2.6,2v6.8H22.4V19.7c0-1.1-1.2-2-2.6-2H11.1Z"/><path d="M18.6,0H7.4A4.5,4.5,0,0,0,3.1,3.4a4.37,4.37,0,0,0-2.9,3A5,5,0,0,0,0,7.6V30.4a4.44,4.44,0,0,0,4.4,4.4H20.6a5,5,0,0,0,1.2-.2,4.41,4.41,0,0,0,3.1-3.1A4.41,4.41,0,0,0,28,27.3V10.2ZM22,32.1a2.11,2.11,0,0,1-1.3.5H4.4a2.22,2.22,0,0,1-2.2-2.2V7.6a1.9,1.9,0,0,1,.5-1.3L3,6V27.3a4.44,4.44,0,0,0,4.4,4.4h15Zm3.8-4.9a2.14,2.14,0,0,1-.8,1.7,2.51,2.51,0,0,1-1.4.6H7.4a2.22,2.22,0,0,1-2.2-2.2V4.5a2.84,2.84,0,0,1,.4-1.3,2,2,0,0,1,1.8-.9H17.6V8.1a3,3,0,0,0,3,3.1h5.2v16Z"/></svg>